<?xml version="1.0" encoding="UTF-8"?>
<!DOCTYPE svg PUBLIC "-//W3C//DTD SVG 1.1//EN" "http://www.w3.org/Graphics/SVG/1.1/DTD/svg11.dtd">
<!-- Creator: CorelDRAW -->
<svg xmlns="http://www.w3.org/2000/svg" xml:space="preserve" width="618px" height="115px" version="1.1" style="shape-rendering:geometricPrecision; text-rendering:geometricPrecision; image-rendering:optimizeQuality; fill-rule:evenodd; clip-rule:evenodd"
viewBox="0 0 95.28 17.68"
 xmlns:xlink="http://www.w3.org/1999/xlink"
 xmlns:xodm="http://www.corel.com/coreldraw/odm/2003">
 <defs>
  <style type="text/css">
   <![CDATA[
    .fil0 {fill:#373435}
    .fil4 {fill:#019CDF}
    .fil3 {fill:#DF1E6D}
    .fil2 {fill:#F3661E}
    .fil1 {fill:#FFB616}
    .fil5 {fill:black;fill-rule:nonzero}
   ]]>
  </style>
 </defs>
 <g id="Capa_x0020_1">
  <metadata id="CorelCorpID_0Corel-Layer"/>
  <path class="fil0" d="M5.62 10.16c0.17,0.58 0.4,1.53 0.9,1.94 0.15,0.12 0.12,0.14 0.39,0.32 0.17,0.11 0.27,0.16 0.47,0.24 0.72,0.28 1.71,0.22 2.41,-0.11 0.35,-0.15 0.83,-0.46 1.07,-0.69 0.21,-0.2 0.34,-0.3 0.54,-0.54 0.12,-0.13 0.21,-0.24 0.32,-0.38l0.31 -0.44 0.02 0.06c0.07,0.34 0.04,1.08 0.01,1.39 -0.14,1.26 -0.71,2.35 -1.53,3.18 -1.14,1.16 -2.74,1.89 -4.53,1.7 -1.89,-0.21 -3.2,-1.09 -3.13,-3.14 0.04,-0.95 0.54,-1.75 1.16,-2.37l0.63 -0.55c0.21,-0.17 0.71,-0.51 0.96,-0.61zm-3.46 4.77c-0.13,-0.07 -0.4,-0.49 -0.51,-0.65 -0.54,-0.82 -0.81,-1.85 -0.81,-2.87 0,-1.44 0.44,-2.51 1.14,-3.65 0.13,-0.2 0.36,-0.47 0.46,-0.65 0.13,0.06 0.26,0.15 0.39,0.23 0.71,0.47 0.86,0.62 1.44,1.13 0.21,0.18 0.83,0.83 0.91,1.03 -0.5,0.21 -1.04,0.65 -1.45,0.98 -0.7,0.59 -1.36,1.56 -1.58,2.5 -0.2,0.82 -0.08,1.23 0.01,1.95zm3.8 -5.87c-0.01,0 -0.79,-0.87 -1,-1.06 -0.12,-0.11 -0.24,-0.23 -0.37,-0.33 -0.42,-0.34 -0.74,-0.59 -1.19,-0.9 -0.13,-0.09 -0.31,-0.18 -0.43,-0.28 0.09,-0.18 1.17,-1.4 1.41,-1.67 0.39,-0.46 1.04,-1.28 1.33,-1.75 0.14,-0.22 0.26,-0.43 0.39,-0.64 0.09,-0.16 0.28,-0.59 0.37,-0.69l0.45 0.83c0.55,0.98 0.83,1.83 0.72,3.08 -0.07,0.73 -0.26,1.42 -0.57,1.98 -0.28,0.51 -0.45,0.71 -0.8,1.11 -0.1,0.1 -0.24,0.22 -0.31,0.32zm2.46 -4.44l0.38 0.42c0.13,0.15 0.26,0.27 0.39,0.42l0.75 0.87c0.37,0.41 1.04,1.39 1.31,1.89 0.09,0.18 0.49,0.93 0.45,1.12 -0.04,0.23 -0.46,0.89 -0.57,1.05 -0.66,0.89 -1.87,1.93 -3.14,1.63 -0.47,-0.12 -0.78,-0.32 -1.01,-0.61 -0.3,-0.38 -0.38,-0.87 -0.57,-1.41 -0.03,-0.1 -0.12,-0.22 -0.06,-0.3 0.01,-0.03 1.21,-0.86 1.76,-2.26 0.36,-0.92 0.43,-1.74 0.31,-2.82zm-2.06 -4.6c-0.4,0.1 -0.34,0.55 -0.64,1.26 -0.18,0.41 -0.44,0.88 -0.69,1.23 -1.62,2.34 -3.76,3.9 -4.69,6.78 -0.7,2.13 -0.3,4.24 1.03,5.95l0.45 0.5c0.58,0.53 0.76,0.77 1.65,1.22 0.88,0.45 1.9,0.72 3.12,0.72 1.2,0 2.18,-0.37 3.02,-0.81 0.85,-0.45 1.51,-1.07 2.05,-1.76 1.35,-1.73 1.58,-3.93 0.89,-6.01 -0.56,-1.73 -1.9,-3.29 -3.05,-4.59 -0.3,-0.33 -0.6,-0.66 -0.89,-1.02 -0.72,-0.9 -1.4,-1.9 -1.71,-3.06 -0.06,-0.25 -0.23,-0.5 -0.54,-0.41z"/>
  <path class="fil1" d="M5.62 10.16c-0.25,0.1 -0.75,0.44 -0.96,0.61l-0.63 0.55c-0.62,0.62 -1.12,1.42 -1.16,2.37 -0.07,2.05 1.24,2.93 3.13,3.14 1.79,0.19 3.39,-0.54 4.53,-1.7 0.82,-0.83 1.39,-1.92 1.53,-3.18 0.03,-0.31 0.06,-1.05 -0.01,-1.39l-0.02 -0.06 -0.31 0.44c-0.11,0.14 -0.2,0.25 -0.32,0.38 -0.2,0.24 -0.33,0.34 -0.54,0.54 -0.24,0.23 -0.72,0.54 -1.07,0.69 -0.7,0.33 -1.69,0.39 -2.41,0.11 -0.2,-0.08 -0.3,-0.13 -0.47,-0.24 -0.27,-0.18 -0.24,-0.2 -0.39,-0.32 -0.5,-0.41 -0.73,-1.36 -0.9,-1.94z"/>
  <path class="fil2" d="M9.19 5.46c-0.13,-0.15 -0.26,-0.27 -0.39,-0.42l-0.38 -0.42c0.12,1.08 0.05,1.9 -0.31,2.82 -0.55,1.4 -1.75,2.23 -1.76,2.26 -0.06,0.08 0.03,0.2 0.06,0.3 0.19,0.54 0.27,1.03 0.57,1.41 0.23,0.29 0.54,0.49 1.01,0.61 1.27,0.3 2.48,-0.74 3.14,-1.63 0.11,-0.16 0.53,-0.82 0.57,-1.05 0.04,-0.19 -0.36,-0.94 -0.45,-1.12 -0.27,-0.5 -0.94,-1.48 -1.31,-1.89l-0.75 -0.87z"/>
  <path class="fil3" d="M5.96 9.06c0.07,-0.1 0.21,-0.22 0.31,-0.32 0.35,-0.4 0.52,-0.6 0.8,-1.11 0.31,-0.56 0.5,-1.25 0.57,-1.98 0.11,-1.25 -0.17,-2.1 -0.72,-3.08l-0.45 -0.83c-0.09,0.1 -0.28,0.53 -0.37,0.69 -0.13,0.21 -0.25,0.42 -0.39,0.64 -0.29,0.47 -0.94,1.29 -1.33,1.75 -0.24,0.27 -1.32,1.49 -1.41,1.67 0.12,0.1 0.3,0.19 0.43,0.28 0.45,0.31 0.77,0.56 1.19,0.9 0.13,0.1 0.25,0.22 0.37,0.33 0.21,0.19 0.99,1.06 1,1.06z"/>
  <path class="fil4" d="M2.16 14.93c-0.09,-0.72 -0.21,-1.13 -0.01,-1.95 0.22,-0.94 0.88,-1.91 1.58,-2.5 0.41,-0.33 0.95,-0.77 1.45,-0.98 -0.08,-0.2 -0.7,-0.85 -0.91,-1.03 -0.58,-0.51 -0.73,-0.66 -1.44,-1.13 -0.13,-0.08 -0.26,-0.17 -0.39,-0.23 -0.1,0.18 -0.33,0.45 -0.46,0.65 -0.7,1.14 -1.14,2.21 -1.14,3.65 0,1.02 0.27,2.05 0.81,2.87 0.11,0.16 0.38,0.58 0.51,0.65z"/>
  <path class="fil5" d="M14.98 8.51l6.01 0c0.62,0 1.15,0.26 1.56,0.78 0.16,0.26 0.25,0.52 0.25,0.76l0 1.06c0,0.51 -0.27,0.94 -0.83,1.3 -0.31,0.17 -0.63,0.24 -0.93,0.24l-4.26 0 0 1.55c0,0.01 -0.01,0.02 -0.02,0.02l-1.78 0c-0.02,0 -0.02,-0.01 -0.02,-0.02l0 -5.66c0,-0.02 0.01,-0.03 0.02,-0.03zm1.8 1.36l0 1.43 3.47 0c0.37,0 0.6,-0.16 0.7,-0.49 0.02,-0.07 0.02,-0.14 0.02,-0.22 0,-0.33 -0.14,-0.56 -0.43,-0.68 -0.08,-0.02 -0.18,-0.04 -0.27,-0.04l-3.49 0zm6.59 -1.36l6.02 0c0.54,0 1.02,0.21 1.42,0.63 0.25,0.29 0.37,0.6 0.37,0.93l0 1.04c0,0.53 -0.29,0.98 -0.88,1.33l-0.23 0.09 1.11 1.68 -0.02 0.01 -2.16 0c-0.05,-0.05 -0.41,-0.57 -1.06,-1.57l-2.77 0 0 1.55c0,0.01 -0.01,0.02 -0.02,0.02l-1.78 0c-0.02,0 -0.02,-0.01 -0.02,-0.02l0 -5.66c0,-0.02 0.01,-0.03 0.02,-0.03zm1.8 1.36l0 1.43 3.46 0c0.37,0 0.6,-0.16 0.7,-0.49 0.02,-0.07 0.02,-0.14 0.02,-0.22 0,-0.33 -0.14,-0.56 -0.42,-0.68 -0.09,-0.02 -0.19,-0.04 -0.27,-0.04l-3.49 0zm6.58 -1.36l1.78 0c0.01,0.01 0.02,0.01 0.02,0.03l0 5.66c0,0.01 -0.01,0.02 -0.02,0.02l-1.78 0c-0.02,0 -0.02,-0.01 -0.02,-0.02l0 -5.66c0,-0.02 0.01,-0.03 0.02,-0.03zm2.36 0l6.05 0c0.54,0 1.03,0.24 1.47,0.71 0.19,0.27 0.29,0.56 0.29,0.83l0 4.15c0,0.01 -0.01,0.02 -0.02,0.02l-1.78 0c-0.02,0 -0.03,-0.01 -0.03,-0.02l0 -3.3c0,-0.51 -0.22,-0.84 -0.64,-0.99 -0.11,-0.02 -0.2,-0.04 -0.29,-0.04l-3.26 0 0 4.33c0,0.01 -0.01,0.02 -0.02,0.02l-1.77 0c-0.03,0 -0.03,-0.01 -0.03,-0.02l0 -5.66c0,-0.02 0.02,-0.03 0.03,-0.03zm8.38 0l7.79 0c0.01,0.01 0.03,0.01 0.03,0.03l0 1.3c0,0.02 -0.02,0.03 -0.03,0.03l-2.97 0 0 4.33c0,0.01 -0.01,0.02 -0.04,0.02l-1.77 0c-0.01,0 -0.02,-0.01 -0.02,-0.02l0 -4.33 -2.99 0c-0.02,0 -0.02,-0.01 -0.02,-0.03l0 -1.3c0,-0.02 0.01,-0.03 0.02,-0.03zm10.12 0l4.24 0c0.64,0 1.16,0.25 1.56,0.74 0.19,0.26 0.28,0.55 0.28,0.83l0 2.59c0,0.57 -0.33,1.03 -0.97,1.37 -0.27,0.12 -0.57,0.18 -0.87,0.18l-4.19 0c-0.62,0 -1.13,-0.25 -1.55,-0.75 -0.17,-0.25 -0.26,-0.51 -0.26,-0.78l0 -2.62c0,-0.6 0.35,-1.08 1.07,-1.42 0.28,-0.08 0.51,-0.14 0.69,-0.14zm0.06 2.29l0 1.12c0,0.47 0.24,0.78 0.72,0.93 0.07,0.01 0.14,0.02 0.21,0.02l2.34 0c0.43,0 0.72,-0.22 0.88,-0.66 0.03,-0.07 0.04,-0.16 0.04,-0.25l0 -1.09c0,-0.48 -0.22,-0.81 -0.68,-0.97 -0.13,-0.03 -0.24,-0.03 -0.34,-0.03l-2.24 0c-0.43,0 -0.72,0.22 -0.9,0.66 -0.02,0.09 -0.03,0.18 -0.03,0.27zm6.59 -2.29l1.77 0c0.01,0.01 0.02,0.01 0.02,0.03l0 4.33 6 0c0.01,0 0.02,0.01 0.02,0.02l0 1.31c0,0.01 -0.01,0.02 -0.02,0.02l-7.79 0c-0.03,0 -0.03,-0.01 -0.03,-0.02l0 -5.66c0,-0.02 0.01,-0.03 0.03,-0.03zm10.11 0l4.24 0c0.65,0 1.17,0.25 1.56,0.74 0.2,0.26 0.28,0.55 0.28,0.83l0 2.59c0,0.57 -0.32,1.03 -0.97,1.37 -0.27,0.12 -0.56,0.18 -0.87,0.18l-4.18 0c-0.62,0 -1.14,-0.25 -1.55,-0.75 -0.18,-0.25 -0.26,-0.51 -0.26,-0.78l0 -2.62c0,-0.6 0.35,-1.08 1.07,-1.42 0.28,-0.08 0.51,-0.14 0.68,-0.14zm0.07 2.29l0 1.12c0,0.47 0.24,0.78 0.72,0.93 0.06,0.01 0.14,0.02 0.2,0.02l2.35 0c0.42,0 0.72,-0.22 0.88,-0.66 0.02,-0.07 0.03,-0.16 0.03,-0.25l0 -1.09c0,-0.48 -0.21,-0.81 -0.67,-0.97 -0.13,-0.03 -0.24,-0.03 -0.34,-0.03l-2.25 0c-0.42,0 -0.72,0.22 -0.89,0.66 -0.02,0.09 -0.03,0.18 -0.03,0.27zm8.34 -2.29l6.04 0c0.01,0.01 0.02,0.01 0.02,0.03l0 1.3c0,0.02 -0.01,0.03 -0.02,0.03l-5.07 0c-0.43,0 -0.73,0.23 -0.91,0.69 -0.01,0.1 -0.02,0.16 -0.02,0.21l0 1.16c0,0.43 0.21,0.72 0.63,0.89 0.08,0.04 0.19,0.05 0.3,0.05l3.26 0 0 -1.04c0.01,-0.03 0.01,-0.03 0.03,-0.03l1.78 0c0.01,0 0.02,0.02 0.02,0.03l0 2.37c0,0.01 -0.01,0.02 -0.02,0.02l-6.01 0c-0.56,0 -1.04,-0.2 -1.44,-0.62 -0.25,-0.29 -0.37,-0.61 -0.37,-0.93l0 -2.61c0,-0.58 0.33,-1.04 0.99,-1.36 0.3,-0.12 0.55,-0.19 0.79,-0.19zm6.62 0l1.78 0c0.01,0.01 0.02,0.01 0.02,0.03l0 5.66c0,0.01 -0.01,0.02 -0.02,0.02l-1.78 0c-0.02,0 -0.02,-0.01 -0.02,-0.02l0 -5.66c0,-0.02 0.01,-0.03 0.02,-0.03zm5.7 0l1.8 0c0.04,0.03 0.42,0.66 1.13,1.88 1.44,2.44 2.19,3.71 2.25,3.82l0 0.01 -2.1 0c-0.04,-0.04 -0.7,-1.13 -1.94,-3.27 -0.15,-0.25 -0.23,-0.38 -0.24,-0.38 -1.4,2.39 -2.13,3.6 -2.16,3.65l-2.1 0 0 -0.02c2.15,-3.66 3.27,-5.56 3.36,-5.69z"/>
  <path class="fil5" d="M15.26 5.57l1.7 0c0.01,0 0.01,0 0.01,0.01l0 0.28c0,0.01 0,0.01 -0.01,0.01l-1.7 0c-0.01,0 -0.01,0 -0.01,-0.01l0 -0.28c0,-0.01 0,-0.01 0.01,-0.01zm0 0.49l1.7 0c0.01,0 0.01,0.01 0.01,0.01l0 0.26c0,0 0,0 -0.01,0l-1.7 0c-0.01,0 -0.01,0 -0.01,0l0 -0.26c0,-0.01 0,-0.01 0.01,-0.01zm0 0.47l1.7 0c0.01,0 0.01,0 0.01,0l0 0.29c0,0 0,0 -0.01,0l-1.7 0c-0.01,0 -0.01,0 -0.01,0l0 -0.29c0,0 0,0 0.01,0zm2.22 -0.96l1.32 0c0,0 0.01,0 0.01,0.01l0 0.28c0,0.01 -0.01,0.01 -0.01,0.01l-1.21 0c-0.07,0.01 -0.1,0.04 -0.1,0.1 0,0.04 0.02,0.07 0.06,0.08 0.01,0.01 0.03,0.01 0.04,0.01l0.83 0c0.11,0 0.22,0.05 0.31,0.14 0.05,0.06 0.08,0.13 0.08,0.2l0 0.09c0,0.12 -0.08,0.22 -0.22,0.3 -0.06,0.02 -0.12,0.03 -0.18,0.03l-1.32 0c0,0 0,0 0,0l0 -0.29c0,0 0,0 0,0l1.21 0c0.05,0 0.08,-0.02 0.1,-0.07 0.01,-0.02 0.01,-0.03 0.01,-0.03 0,-0.04 -0.02,-0.07 -0.06,-0.09 -0.02,0 -0.03,-0.01 -0.05,-0.01l-0.81 0c-0.14,0 -0.25,-0.05 -0.34,-0.15 -0.04,-0.06 -0.06,-0.12 -0.06,-0.18l0 -0.09c0,-0.11 0.06,-0.21 0.19,-0.28 0.07,-0.03 0.14,-0.05 0.2,-0.06zm1.45 0l1.32 0c0.13,0 0.25,0.06 0.34,0.17 0.03,0.06 0.05,0.12 0.05,0.17l0 0.23c0,0.11 -0.06,0.21 -0.18,0.29 -0.07,0.03 -0.14,0.05 -0.2,0.05l-0.94 0 0 0.34c0,0 0,0 0,0l-0.39 0c0,0 0,0 0,0l0 -1.24c0,-0.01 0,-0.01 0,-0.01zm0.39 0.3l0 0.31 0.76 0c0.09,0 0.14,-0.03 0.16,-0.1 0,-0.02 0,-0.03 0,-0.05 0,-0.08 -0.03,-0.13 -0.09,-0.15 -0.02,-0.01 -0.04,-0.01 -0.06,-0.01l-0.77 0zm1.45 -0.3l1.71 0c0,0 0,0 0,0.01l0 0.28c0,0.01 0,0.01 0,0.01l-1.32 0 0 0.19 0.97 0c0.01,0 0.01,0.01 0.01,0.01l0 0.26c0,0 0,0 -0.01,0l-0.97 0 0 0.2 1.32 0c0,0 0,0 0,0l0 0.29c0,0 0,0 0,0l-1.71 0c-0.01,0 -0.01,0 -0.01,0l0 -1.24c0,-0.01 0.01,-0.01 0.01,-0.01zm2.22 0l1.32 0c0.01,0 0.01,0 0.01,0.01l0 0.28c0,0.01 0,0.01 -0.01,0.01l-1.11 0c-0.1,0 -0.17,0.06 -0.2,0.17 0,0.01 0,0.03 0,0.04l0 0.24c0,0.1 0.04,0.16 0.14,0.2 0.01,0.01 0.04,0.01 0.06,0.01l1.11 0c0.01,0 0.01,0 0.01,0l0 0.29c0,0 0,0 -0.01,0l-1.31 0c-0.14,0 -0.25,-0.05 -0.34,-0.16 -0.04,-0.06 -0.06,-0.12 -0.06,-0.17l0 -0.59c0,-0.1 0.06,-0.19 0.17,-0.27 0.08,-0.04 0.15,-0.06 0.22,-0.06zm1.45 0l0.39 0c0,0 0.01,0 0.01,0.01l0 1.24c0,0 -0.01,0 -0.01,0l-0.39 0c0,0 0,0 0,0l0 -1.24c0,-0.01 0,-0.01 0,-0.01zm1.25 0l0.4 0c0,0.01 0.09,0.15 0.24,0.41 0.32,0.54 0.48,0.82 0.5,0.84l0 0 -0.46 0c-0.01,0 -0.06,-0.09 -0.16,-0.25l-0.65 0c-0.09,0.16 -0.14,0.24 -0.15,0.25l-0.46 0 0 0c0.47,-0.8 0.72,-1.22 0.74,-1.25zm0.2 0.45l-0.15 0.26 0.3 0c-0.1,-0.17 -0.15,-0.25 -0.15,-0.26zm1.06 -0.45l0.39 0c0,0 0,0 0,0.01l0 0.95 1.32 0c0,0 0,0 0,0l0 0.29c0,0 0,0 0,0l-1.71 0c-0.01,0 -0.01,0 -0.01,0l0 -1.24c0,-0.01 0.01,-0.01 0.01,-0.01zm1.84 0l0.38 0c0.01,0 0.01,0 0.01,0.01l0 1.24c0,0 0,0 -0.01,0l-0.38 0c-0.01,0 -0.01,0 -0.01,0l0 -1.24c0,-0.01 0,-0.01 0.01,-0.01zm0.9 0l1.32 0c0,0 0,0 0,0.01l0 0.28c0,0.01 0,0.01 0,0.01l-1.21 0c-0.07,0.01 -0.1,0.04 -0.1,0.1 0,0.04 0.02,0.07 0.06,0.08 0.01,0.01 0.02,0.01 0.04,0.01l0.82 0c0.12,0 0.22,0.05 0.31,0.14 0.06,0.06 0.08,0.13 0.08,0.2l0 0.09c0,0.12 -0.07,0.22 -0.21,0.3 -0.06,0.02 -0.12,0.03 -0.18,0.03l-1.32 0c0,0 0,0 0,0l0 -0.29c0,0 0,0 0,0l1.21 0c0.05,0 0.08,-0.02 0.1,-0.07 0,-0.02 0,-0.03 0,-0.03 0,-0.04 -0.02,-0.07 -0.06,-0.09 -0.01,0 -0.03,-0.01 -0.04,-0.01l-0.81 0c-0.14,0 -0.25,-0.05 -0.34,-0.15 -0.04,-0.06 -0.06,-0.12 -0.06,-0.18l0 -0.09c0,-0.11 0.06,-0.21 0.18,-0.28 0.08,-0.03 0.14,-0.05 0.21,-0.06zm1.45 0l1.71 0c0,0 0,0 0,0.01l0 0.28c0,0.01 0,0.01 0,0.01l-0.66 0 0 0.95c0,0 0,0 0,0l-0.39 0c0,0 -0.01,0 -0.01,0l0 -0.95 -0.65 0c-0.01,0 -0.01,0 -0.01,-0.01l0 -0.28c0,-0.01 0.01,-0.01 0.01,-0.01zm2.57 0l0.39 0c0.01,0.01 0.09,0.15 0.25,0.41 0.31,0.54 0.48,0.82 0.49,0.84l0 0 -0.46 0c0,0 -0.05,-0.09 -0.15,-0.25l-0.65 0c-0.09,0.16 -0.14,0.24 -0.15,0.25l-0.46 0 0 0c0.47,-0.8 0.72,-1.22 0.74,-1.25zm0.19 0.45l-0.14 0.26 0.3 0c-0.1,-0.17 -0.15,-0.25 -0.16,-0.26zm1.45 -0.45l1.32 0c0.01,0 0.01,0 0.01,0.01l0 0.28c0,0.01 0,0.01 -0.01,0.01l-1.21 0c-0.07,0.01 -0.1,0.04 -0.1,0.1 0,0.04 0.02,0.07 0.06,0.08 0.01,0.01 0.03,0.01 0.04,0.01l0.83 0c0.12,0 0.22,0.05 0.31,0.14 0.05,0.06 0.08,0.13 0.08,0.2l0 0.09c0,0.12 -0.07,0.22 -0.21,0.3 -0.06,0.02 -0.12,0.03 -0.19,0.03l-1.31 0c-0.01,0 -0.01,0 -0.01,0l0 -0.29c0,0 0,0 0.01,0l1.2 0c0.05,0 0.08,-0.02 0.1,-0.07 0.01,-0.02 0.01,-0.03 0.01,-0.03 0,-0.04 -0.02,-0.07 -0.06,-0.09 -0.01,0 -0.03,-0.01 -0.05,-0.01l-0.81 0c-0.13,0 -0.25,-0.05 -0.34,-0.15 -0.04,-0.06 -0.06,-0.12 -0.06,-0.18l0 -0.09c0,-0.11 0.06,-0.21 0.19,-0.28 0.07,-0.03 0.14,-0.05 0.2,-0.06zm2.62 0l1.71 0c0,0 0,0 0,0.01l0 0.28c0,0.01 0,0.01 0,0.01l-1.32 0 0 0.19 0.97 0c0.01,0 0.01,0.01 0.01,0.01l0 0.26c0,0 0,0 -0.01,0l-0.97 0 0 0.2 1.32 0c0,0 0,0 0,0l0 0.29c0,0 0,0 0,0l-1.71 0c-0.01,0 -0.01,0 -0.01,0l0 -1.24c0,-0.01 0.01,-0.01 0.01,-0.01zm1.84 0l0.39 0c0.24,0.22 0.54,0.5 0.91,0.85l0.01 0 0 -0.84c0,-0.01 0,-0.01 0,-0.01l0.39 0c0.01,0 0.01,0 0.01,0.01l0 1.24c0,0 0,0 -0.01,0l-0.4 0 -0.91 -0.84 0 0.84c0,0 0,0 -0.01,0l-0.38 0c-0.01,0 -0.01,0 -0.01,0l0 -1.24c0,-0.01 0,-0.01 0.01,-0.01zm3 0l0.39 0c0,0 0,0 0,0.01l0 1.24c0,0 0,0 0,0l-0.39 0c-0.01,0 -0.01,0 -0.01,0l0 -1.24c0,-0.01 0.01,-0.01 0.01,-0.01zm0.51 0l0.4 0 0.54 0.62c0.35,-0.41 0.53,-0.62 0.53,-0.62l0.4 0c0.01,0 0.01,0 0.01,0.01l0 1.24c0,0 0,0 -0.01,0l-0.39 0c0,0 0,0 0,0l0 -0.74 -0.54 0.62 0 0c-0.01,0 -0.19,-0.21 -0.54,-0.62l0 0.74c0,0 0,0 -0.01,0l-0.39 0c0,0 0,0 0,0l0 -1.24c0,-0.01 0,-0.01 0,-0.01zm2 0l1.32 0c0.13,0 0.25,0.06 0.34,0.17 0.03,0.06 0.05,0.12 0.05,0.17l0 0.23c0,0.11 -0.06,0.21 -0.18,0.29 -0.07,0.03 -0.14,0.05 -0.2,0.05l-0.94 0 0 0.34c0,0 0,0 0,0l-0.39 0c-0.01,0 -0.01,0 -0.01,0l0 -1.24c0,-0.01 0.01,-0.01 0.01,-0.01zm0.39 0.3l0 0.31 0.76 0c0.08,0 0.13,-0.03 0.16,-0.1 0,-0.02 0,-0.03 0,-0.05 0,-0.08 -0.03,-0.13 -0.09,-0.15 -0.02,-0.01 -0.04,-0.01 -0.06,-0.01l-0.77 0zm1.45 -0.3l1.32 0c0.11,0 0.22,0.05 0.31,0.14 0.05,0.06 0.08,0.13 0.08,0.2l0 0.23c0,0.12 -0.07,0.22 -0.19,0.29l-0.05 0.02 0.24 0.37 -0.01 0 -0.47 0c-0.01,-0.01 -0.09,-0.12 -0.23,-0.34l-0.61 0 0 0.34c0,0 0,0 0,0l-0.39 0c-0.01,0 -0.01,0 -0.01,0l0 -1.24c0,-0.01 0,-0.01 0.01,-0.01zm0.39 0.3l0 0.31 0.76 0c0.08,0 0.13,-0.03 0.15,-0.1 0.01,-0.02 0.01,-0.03 0.01,-0.05 0,-0.08 -0.03,-0.13 -0.1,-0.15 -0.01,-0.01 -0.04,-0.01 -0.05,-0.01l-0.77 0zm1.44 -0.3l1.71 0c0,0 0.01,0 0.01,0.01l0 0.28c0,0.01 -0.01,0.01 -0.01,0.01l-1.31 0 0 0.19 0.97 0c0,0 0,0.01 0,0.01l0 0.26c0,0 0,0 0,0l-0.97 0 0 0.2 1.31 0c0,0 0.01,0 0.01,0l0 0.29c0,0 -0.01,0 -0.01,0l-1.71 0c0,0 0,0 0,0l0 -1.24c0,-0.01 0,-0.01 0,-0.01zm2.23 0l1.32 0c0,0 0,0 0,0.01l0 0.28c0,0.01 0,0.01 0,0.01l-1.21 0c-0.07,0.01 -0.11,0.04 -0.11,0.1 0,0.04 0.03,0.07 0.07,0.08 0.01,0.01 0.02,0.01 0.04,0.01l0.82 0c0.12,0 0.22,0.05 0.31,0.14 0.06,0.06 0.08,0.13 0.08,0.2l0 0.09c0,0.12 -0.07,0.22 -0.21,0.3 -0.06,0.02 -0.12,0.03 -0.18,0.03l-1.32 0c0,0 0,0 0,0l0 -0.29c0,0 0,0 0,0l1.21 0c0.05,0 0.08,-0.02 0.1,-0.07 0,-0.02 0,-0.03 0,-0.03 0,-0.04 -0.02,-0.07 -0.06,-0.09 -0.01,0 -0.03,-0.01 -0.04,-0.01l-0.82 0c-0.13,0 -0.24,-0.05 -0.33,-0.15 -0.04,-0.06 -0.06,-0.12 -0.06,-0.18l0 -0.09c0,-0.11 0.06,-0.21 0.18,-0.28 0.08,-0.03 0.14,-0.05 0.21,-0.06zm1.45 0l0.39 0c0,0 0,0 0,0.01l0 1.24c0,0 0,0 0,0l-0.39 0c-0.01,0 -0.01,0 -0.01,0l0 -1.24c0,-0.01 0.01,-0.01 0.01,-0.01zm0.89 0l0.93 0c0.14,0 0.26,0.06 0.34,0.16 0.05,0.06 0.07,0.12 0.07,0.19l0 0.56c0,0.13 -0.08,0.23 -0.22,0.3 -0.06,0.03 -0.12,0.04 -0.19,0.04l-0.91 0c-0.14,0 -0.25,-0.05 -0.34,-0.16 -0.04,-0.06 -0.06,-0.11 -0.06,-0.17l0 -0.58c0,-0.13 0.08,-0.23 0.23,-0.31 0.07,-0.02 0.12,-0.03 0.15,-0.03zm0.02 0.5l0 0.25c0,0.1 0.05,0.17 0.16,0.2 0.01,0.01 0.03,0.01 0.04,0.01l0.51 0c0.1,0 0.16,-0.05 0.2,-0.15 0,-0.01 0.01,-0.03 0.01,-0.05l0 -0.24c0,-0.11 -0.05,-0.18 -0.15,-0.21 -0.03,-0.01 -0.06,-0.01 -0.08,-0.01l-0.49 0c-0.09,0 -0.16,0.05 -0.19,0.14 -0.01,0.02 -0.01,0.04 -0.01,0.06zm1.44 -0.5l0.39 0c0.24,0.22 0.55,0.5 0.92,0.85l0 0 0 -0.84c0,-0.01 0,-0.01 0.01,-0.01l0.39 0c0,0 0,0 0,0.01l0 1.24c0,0 0,0 0,0l-0.4 0 -0.91 -0.84 0 0.84c0,0 -0.01,0 -0.01,0l-0.39 0c0,0 0,0 0,0l0 -1.24c0,-0.01 0,-0.01 0,-0.01zm1.84 0.96l0.39 0 0 0c0,0.05 -0.04,0.11 -0.1,0.18 -0.09,0.08 -0.18,0.11 -0.29,0.11 -0.01,0 -0.01,0 -0.01,0l0 -0.29c0,0 0.01,0 0.01,0zm1.68 -0.96l0.4 0 0.53 0.62c0.36,-0.41 0.53,-0.62 0.54,-0.62l0.4 0c0,0 0,0 0,0.01l0 1.24c0,0 0,0 0,0l-0.39 0c-0.01,0 -0.01,0 -0.01,0l0 -0.74 -0.53 0.62 -0.01 0c0,0 -0.18,-0.21 -0.54,-0.62l0 0.74c0,0 0,0 0,0l-0.39 0c0,0 0,0 0,0l0 -1.24c0,-0.01 0,-0.01 0,-0.01zm2.73 0l0.39 0c0.01,0.01 0.09,0.15 0.25,0.41 0.31,0.54 0.48,0.82 0.49,0.84l0 0 -0.46 0c-0.01,0 -0.06,-0.09 -0.15,-0.25l-0.65 0c-0.09,0.16 -0.14,0.24 -0.15,0.25l-0.46 0 0 0c0.47,-0.8 0.72,-1.22 0.74,-1.25zm0.19 0.45l-0.14 0.26 0.29 0c-0.09,-0.17 -0.14,-0.25 -0.15,-0.26zm1.06 -0.45l1.71 0c0.01,0 0.01,0 0.01,0.01l0 0.28c0,0.01 0,0.01 -0.01,0.01l-1.31 0 0 0.19 0.97 0c0,0 0.01,0.01 0.01,0.01l0 0.26c0,0 -0.01,0 -0.01,0l-0.97 0 0 0.2 1.31 0c0.01,0 0.01,0 0.01,0l0 0.29c0,0 0,0 -0.01,0l-1.71 0c0,0 0,0 0,0l0 -1.24c0,-0.01 0,-0.01 0,-0.01zm2.23 0l1.32 0c0,0 0,0 0,0.01l0 0.28c0,0.01 0,0.01 0,0.01l-1.21 0c-0.07,0.01 -0.1,0.04 -0.1,0.1 0,0.04 0.02,0.07 0.06,0.08 0.01,0.01 0.02,0.01 0.04,0.01l0.83 0c0.11,0 0.22,0.05 0.3,0.14 0.06,0.06 0.08,0.13 0.08,0.2l0 0.09c0,0.12 -0.07,0.22 -0.21,0.3 -0.06,0.02 -0.12,0.03 -0.18,0.03l-1.32 0c0,0 0,0 0,0l0 -0.29c0,0 0,0 0,0l1.21 0c0.05,0 0.08,-0.02 0.1,-0.07 0,-0.02 0,-0.03 0,-0.03 0,-0.04 -0.02,-0.07 -0.06,-0.09 -0.01,0 -0.03,-0.01 -0.04,-0.01l-0.81 0c-0.14,0 -0.25,-0.05 -0.34,-0.15 -0.04,-0.06 -0.06,-0.12 -0.06,-0.18l0 -0.09c0,-0.11 0.06,-0.21 0.19,-0.28 0.07,-0.03 0.13,-0.05 0.2,-0.06zm1.45 0l1.71 0c0,0 0,0 0,0.01l0 0.28c0,0.01 0,0.01 0,0.01l-0.66 0 0 0.95c0,0 0,0 0,0l-0.39 0c0,0 -0.01,0 -0.01,0l0 -0.95 -0.65 0c-0.01,0 -0.01,0 -0.01,-0.01l0 -0.28c0,-0.01 0.01,-0.01 0.01,-0.01zm1.84 0l1.31 0c0.12,0 0.23,0.05 0.32,0.14 0.05,0.06 0.08,0.13 0.08,0.2l0 0.23c0,0.12 -0.07,0.22 -0.19,0.29l-0.05 0.02 0.24 0.37 -0.01 0 -0.47 0c-0.01,-0.01 -0.09,-0.12 -0.23,-0.34l-0.61 0 0 0.34c0,0 0,0 0,0l-0.39 0c-0.01,0 -0.01,0 -0.01,0l0 -1.24c0,-0.01 0,-0.01 0.01,-0.01zm0.39 0.3l0 0.31 0.76 0c0.08,0 0.13,-0.03 0.15,-0.1 0.01,-0.02 0.01,-0.03 0.01,-0.05 0,-0.08 -0.03,-0.13 -0.1,-0.15 -0.01,-0.01 -0.04,-0.01 -0.06,-0.01l-0.76 0zm1.82 -0.3l0.93 0c0.14,0 0.26,0.06 0.34,0.16 0.05,0.06 0.07,0.12 0.07,0.19l0 0.56c0,0.13 -0.08,0.23 -0.22,0.3 -0.06,0.03 -0.12,0.04 -0.19,0.04l-0.92 0c-0.13,0 -0.24,-0.05 -0.33,-0.16 -0.04,-0.06 -0.06,-0.11 -0.06,-0.17l0 -0.58c0,-0.13 0.07,-0.23 0.23,-0.31 0.06,-0.02 0.11,-0.03 0.15,-0.03zm0.02 0.5l0 0.25c0,0.1 0.05,0.17 0.16,0.2 0.01,0.01 0.03,0.01 0.04,0.01l0.51 0c0.1,0 0.16,-0.05 0.2,-0.15 0,-0.01 0,-0.03 0,-0.05l0 -0.24c0,-0.11 -0.04,-0.18 -0.14,-0.21 -0.03,-0.01 -0.06,-0.01 -0.08,-0.01l-0.49 0c-0.09,0 -0.16,0.05 -0.2,0.14 0,0.02 0,0.04 0,0.06zm1.83 -0.5l1.32 0c0,0 0,0 0,0.01l0 0.28c0,0.01 0,0.01 0,0.01l-1.22 0c-0.06,0.01 -0.1,0.04 -0.1,0.1 0,0.04 0.03,0.07 0.07,0.08 0.01,0.01 0.02,0.01 0.04,0.01l0.82 0c0.12,0 0.22,0.05 0.31,0.14 0.06,0.06 0.08,0.13 0.08,0.2l0 0.09c0,0.12 -0.07,0.22 -0.21,0.3 -0.06,0.02 -0.12,0.03 -0.18,0.03l-1.32 0c0,0 0,0 0,0l0 -0.29c0,0 0,0 0,0l1.21 0c0.04,0 0.08,-0.02 0.1,-0.07 0,-0.02 0,-0.03 0,-0.03 0,-0.04 -0.02,-0.07 -0.06,-0.09 -0.01,0 -0.03,-0.01 -0.04,-0.01l-0.82 0c-0.13,0 -0.24,-0.05 -0.33,-0.15 -0.05,-0.06 -0.06,-0.12 -0.06,-0.18l0 -0.09c0,-0.11 0.06,-0.21 0.18,-0.28 0.08,-0.03 0.14,-0.05 0.21,-0.06zm2.61 0l1.71 0c0,0 0.01,0 0.01,0.01l0 0.28c0,0.01 -0.01,0.01 -0.01,0.01l-1.31 0 0 0.19 0.97 0c0,0 0,0.01 0,0.01l0 0.26c0,0 0,0 0,0l-0.97 0 0 0.2 1.31 0c0,0 0.01,0 0.01,0l0 0.29c0,0 -0.01,0 -0.01,0l-1.71 0c0,0 0,0 0,0l0 -1.24c0,-0.01 0,-0.01 0,-0.01zm1.84 0l0.39 0c0.24,0.22 0.55,0.5 0.92,0.85l0 0 0 -0.84c0,-0.01 0,-0.01 0.01,-0.01l0.39 0c0,0 0,0 0,0.01l0 1.24c0,0 0,0 0,0l-0.4 0 -0.92 -0.84 0 0.84c0,0 0,0 0,0l-0.39 0c0,0 0,0 0,0l0 -1.24c0,-0.01 0,-0.01 0,-0.01zm3 0l1.32 0c0.12,0 0.22,0.05 0.32,0.14 0.05,0.06 0.08,0.13 0.08,0.2l0 0.58c0,0.1 -0.06,0.2 -0.18,0.27 -0.07,0.04 -0.14,0.06 -0.21,0.06l-1.33 0c0,0 0,0 0,0l0 -1.24c0,-0.01 0,-0.01 0,-0.01zm0.4 0.3l0 0.66 0.71 0c0.1,0 0.16,-0.05 0.2,-0.15 0,-0.01 0.01,-0.03 0.01,-0.05l0 -0.26c0,-0.09 -0.05,-0.15 -0.14,-0.19 -0.02,-0.01 -0.04,-0.01 -0.07,-0.01l-0.71 0zm1.44 -0.3l1.71 0c0,0 0,0 0,0.01l0 0.28c0,0.01 0,0.01 0,0.01l-1.32 0 0 0.19 0.98 0c0,0 0,0.01 0,0.01l0 0.26c0,0 0,0 0,0l-0.98 0 0 0.2 1.32 0c0,0 0,0 0,0l0 0.29c0,0 0,0 0,0l-1.71 0c0,0 0,0 0,0l0 -1.24c0,-0.01 0,-0.01 0,-0.01zm1.84 0l1.71 0c0,0 0,0 0,0.01l0 0.28c0,0.01 0,0.01 0,0.01l-0.66 0 0 0.95c0,0 0,0 0,0l-0.39 0c-0.01,0 -0.01,0 -0.01,0l0 -0.95 -0.65 0c-0.01,0 -0.01,0 -0.01,-0.01l0 -0.28c0,-0.01 0.01,-0.01 0.01,-0.01zm2.57 0l0.39 0c0.01,0.01 0.09,0.15 0.25,0.41 0.31,0.54 0.48,0.82 0.49,0.84l0 0 -0.46 0c-0.01,0 -0.06,-0.09 -0.15,-0.25l-0.65 0c-0.09,0.16 -0.14,0.24 -0.15,0.25l-0.46 0 0 0c0.47,-0.8 0.72,-1.22 0.74,-1.25zm0.19 0.45l-0.14 0.26 0.29 0c-0.09,-0.17 -0.14,-0.25 -0.15,-0.26zm1.06 -0.45l0.39 0c0.01,0 0.01,0 0.01,0.01l0 0.95 1.31 0c0.01,0 0.01,0 0.01,0l0 0.29c0,0 0,0 -0.01,0l-1.71 0c0,0 0,0 0,0l0 -1.24c0,-0.01 0,-0.01 0,-0.01zm1.84 0l0.39 0c0,0 0.01,0 0.01,0.01l0 0.95 1.31 0c0,0 0,0 0,0l0 0.29c0,0 0,0 0,0l-1.71 0c0,0 0,0 0,0l0 -1.24c0,-0.01 0,-0.01 0,-0.01zm1.84 0l1.71 0c0,0 0,0 0,0.01l0 0.28c0,0.01 0,0.01 0,0.01l-1.32 0 0 0.19 0.98 0c0,0 0,0.01 0,0.01l0 0.26c0,0 0,0 0,0l-0.98 0 0 0.2 1.32 0c0,0 0,0 0,0l0 0.29c0,0 0,0 0,0l-1.71 0c-0.01,0 -0.01,0 -0.01,0l0 -1.24c0,-0.01 0.01,-0.01 0.01,-0.01zm1.84 0.96l0.39 0c0,0 0,0 0,0l0 0.29c0,0 0,0 0,0l-0.39 0c-0.01,0 -0.01,0 -0.01,0l0 -0.29c0,0 0,0 0.01,0z"/>
 </g>
</svg>
