<?xml version="1.0" encoding="UTF-8"?>
<!DOCTYPE svg PUBLIC "-//W3C//DTD SVG 1.1//EN" "http://www.w3.org/Graphics/SVG/1.1/DTD/svg11.dtd">
<!-- Creator: CorelDRAW -->
<svg xmlns="http://www.w3.org/2000/svg" xml:space="preserve" width="618px" height="115px" version="1.1" style="shape-rendering:geometricPrecision; text-rendering:geometricPrecision; image-rendering:optimizeQuality; fill-rule:evenodd; clip-rule:evenodd"
viewBox="0 0 95.03 17.63"
 xmlns:xlink="http://www.w3.org/1999/xlink"
 xmlns:xodm="http://www.corel.com/coreldraw/odm/2003">
 <defs>
  <style type="text/css">
   <![CDATA[
    .fil0 {fill:#373435}
    .fil4 {fill:#019CDF}
    .fil3 {fill:#DF1E6D}
    .fil2 {fill:#F3661E}
    .fil1 {fill:#FFB616}
    .fil5 {fill:#FEFEFE;fill-rule:nonzero}
   ]]>
  </style>
 </defs>
 <g id="Capa_x0020_1">
  <metadata id="CorelCorpID_0Corel-Layer"/>
  <path class="fil0" d="M5.6 10.13c0.17,0.58 0.41,1.53 0.9,1.93 0.15,0.12 0.12,0.15 0.39,0.32 0.17,0.11 0.27,0.17 0.47,0.24 0.72,0.29 1.7,0.23 2.41,-0.1 0.34,-0.16 0.82,-0.46 1.06,-0.69 0.21,-0.2 0.34,-0.3 0.54,-0.53 0.12,-0.14 0.21,-0.25 0.32,-0.39l0.3 -0.44 0.02 0.06c0.08,0.34 0.05,1.07 0.01,1.39 -0.13,1.25 -0.7,2.34 -1.52,3.17 -1.14,1.16 -2.73,1.89 -4.51,1.69 -1.89,-0.21 -3.2,-1.08 -3.13,-3.13 0.04,-0.95 0.54,-1.74 1.16,-2.36l0.62 -0.55c0.22,-0.17 0.71,-0.5 0.96,-0.61zm-3.45 4.76c-0.12,-0.07 -0.4,-0.49 -0.51,-0.65 -0.54,-0.82 -0.8,-1.84 -0.8,-2.86 0,-1.43 0.44,-2.5 1.14,-3.64 0.12,-0.2 0.35,-0.47 0.45,-0.65 0.13,0.06 0.27,0.15 0.39,0.24 0.71,0.46 0.86,0.61 1.44,1.12 0.21,0.18 0.82,0.83 0.9,1.03 -0.49,0.21 -1.03,0.64 -1.44,0.98 -0.69,0.58 -1.36,1.55 -1.58,2.49 -0.19,0.82 -0.07,1.22 0.01,1.94zm3.79 -5.85c0,-0.01 -0.78,-0.88 -0.99,-1.06 -0.12,-0.11 -0.24,-0.23 -0.37,-0.33 -0.42,-0.34 -0.74,-0.59 -1.19,-0.9 -0.13,-0.09 -0.31,-0.17 -0.43,-0.28 0.09,-0.18 1.17,-1.39 1.41,-1.67 0.39,-0.45 1.04,-1.27 1.33,-1.74 0.14,-0.22 0.26,-0.42 0.38,-0.64 0.1,-0.16 0.28,-0.58 0.37,-0.68l0.45 0.82c0.55,0.98 0.83,1.83 0.72,3.08 -0.07,0.72 -0.26,1.41 -0.57,1.97 -0.28,0.51 -0.44,0.71 -0.8,1.1 -0.09,0.11 -0.24,0.23 -0.31,0.33zm2.46 -4.43l0.38 0.42c0.13,0.15 0.26,0.26 0.38,0.42l0.75 0.86c0.37,0.42 1.04,1.39 1.31,1.89 0.09,0.17 0.48,0.93 0.45,1.12 -0.05,0.23 -0.45,0.89 -0.57,1.04 -0.65,0.89 -1.87,1.92 -3.13,1.63 -0.47,-0.12 -0.78,-0.32 -1,-0.61 -0.31,-0.38 -0.39,-0.87 -0.57,-1.41 -0.04,-0.1 -0.12,-0.22 -0.07,-0.3 0.02,-0.03 1.21,-0.86 1.76,-2.25 0.36,-0.92 0.43,-1.74 0.31,-2.81zm-2.06 -4.59c-0.4,0.1 -0.34,0.55 -0.64,1.26 -0.17,0.41 -0.44,0.88 -0.68,1.22 -1.62,2.34 -3.76,3.9 -4.69,6.77 -0.68,2.12 -0.29,4.22 1.03,5.93l0.46 0.5c0.57,0.53 0.76,0.77 1.64,1.22 0.87,0.44 1.9,0.71 3.12,0.71 1.19,0 2.17,-0.37 3,-0.8 0.86,-0.45 1.51,-1.07 2.05,-1.76 1.35,-1.72 1.58,-3.92 0.89,-6 -0.57,-1.71 -1.9,-3.28 -3.04,-4.57 -0.3,-0.33 -0.6,-0.66 -0.89,-1.02 -0.72,-0.9 -1.4,-1.9 -1.7,-3.05 -0.07,-0.25 -0.23,-0.5 -0.55,-0.41z"/>
  <path class="fil1" d="M5.6 10.13c-0.25,0.11 -0.74,0.44 -0.96,0.61l-0.62 0.55c-0.62,0.62 -1.12,1.41 -1.16,2.36 -0.07,2.05 1.24,2.92 3.13,3.13 1.78,0.2 3.37,-0.53 4.51,-1.69 0.82,-0.83 1.39,-1.92 1.52,-3.17 0.04,-0.32 0.07,-1.05 -0.01,-1.39l-0.02 -0.06 -0.3 0.44c-0.11,0.14 -0.2,0.25 -0.32,0.39 -0.2,0.23 -0.33,0.33 -0.54,0.53 -0.24,0.23 -0.72,0.53 -1.06,0.69 -0.71,0.33 -1.69,0.39 -2.41,0.1 -0.2,-0.07 -0.3,-0.13 -0.47,-0.24 -0.27,-0.17 -0.24,-0.2 -0.39,-0.32 -0.49,-0.4 -0.73,-1.35 -0.9,-1.93z"/>
  <path class="fil2" d="M9.16 5.45c-0.12,-0.16 -0.25,-0.27 -0.38,-0.42l-0.38 -0.42c0.12,1.07 0.05,1.89 -0.31,2.81 -0.55,1.39 -1.74,2.22 -1.76,2.25 -0.05,0.08 0.03,0.2 0.07,0.3 0.18,0.54 0.26,1.03 0.57,1.41 0.22,0.29 0.53,0.49 1,0.61 1.26,0.29 2.48,-0.74 3.13,-1.63 0.12,-0.15 0.52,-0.81 0.57,-1.04 0.03,-0.19 -0.36,-0.95 -0.45,-1.12 -0.27,-0.5 -0.94,-1.47 -1.31,-1.89l-0.75 -0.86z"/>
  <path class="fil3" d="M5.94 9.04c0.07,-0.1 0.22,-0.22 0.31,-0.33 0.36,-0.39 0.52,-0.59 0.8,-1.1 0.31,-0.56 0.5,-1.25 0.57,-1.97 0.11,-1.25 -0.17,-2.1 -0.72,-3.08l-0.45 -0.82c-0.09,0.1 -0.27,0.52 -0.37,0.68 -0.12,0.22 -0.24,0.42 -0.38,0.64 -0.29,0.47 -0.94,1.29 -1.33,1.74 -0.24,0.28 -1.32,1.49 -1.41,1.67 0.12,0.11 0.3,0.19 0.43,0.28 0.45,0.31 0.77,0.56 1.19,0.9 0.13,0.1 0.25,0.22 0.37,0.33 0.21,0.18 0.99,1.05 0.99,1.06z"/>
  <path class="fil4" d="M2.15 14.89c-0.08,-0.72 -0.2,-1.12 -0.01,-1.94 0.22,-0.94 0.89,-1.91 1.58,-2.49 0.41,-0.34 0.95,-0.77 1.44,-0.98 -0.08,-0.2 -0.69,-0.85 -0.9,-1.03 -0.58,-0.51 -0.73,-0.66 -1.44,-1.12 -0.12,-0.09 -0.26,-0.18 -0.39,-0.24 -0.1,0.18 -0.33,0.45 -0.45,0.65 -0.7,1.14 -1.14,2.21 -1.14,3.64 0,1.02 0.26,2.04 0.8,2.86 0.11,0.16 0.39,0.58 0.51,0.65z"/>
  <path class="fil5" d="M14.95 8.49l5.99 0c0.62,0 1.14,0.26 1.55,0.77 0.16,0.26 0.25,0.52 0.25,0.76l0 1.06c0,0.51 -0.27,0.94 -0.82,1.3 -0.32,0.16 -0.64,0.24 -0.94,0.24l-4.24 0 0 1.55c0,0.01 -0.01,0.02 -0.02,0.02l-1.77 0c-0.03,0 -0.03,-0.01 -0.03,-0.02l0 -5.65c0,-0.02 0.01,-0.03 0.03,-0.03zm1.79 1.36l0 1.42 3.46 0c0.37,0 0.6,-0.16 0.69,-0.49 0.02,-0.07 0.02,-0.14 0.02,-0.21 0,-0.34 -0.14,-0.57 -0.42,-0.69 -0.09,-0.02 -0.18,-0.03 -0.27,-0.03l-3.48 0zm6.57 -1.36l6 0c0.54,0 1.02,0.21 1.42,0.63 0.25,0.28 0.37,0.6 0.37,0.92l0 1.04c0,0.53 -0.29,0.98 -0.88,1.32l-0.23 0.1 1.11 1.68 -0.02 0.01 -2.15 0c-0.06,-0.06 -0.42,-0.58 -1.07,-1.57l-2.76 0 0 1.55c0,0.01 -0.01,0.02 -0.02,0.02l-1.77 0c-0.02,0 -0.02,-0.01 -0.02,-0.02l0 -5.65c0,-0.02 0.01,-0.03 0.02,-0.03zm1.79 1.36l0 1.42 3.46 0c0.37,0 0.6,-0.16 0.69,-0.49 0.03,-0.07 0.03,-0.14 0.03,-0.21 0,-0.34 -0.15,-0.57 -0.43,-0.69 -0.09,-0.02 -0.18,-0.03 -0.27,-0.03l-3.48 0zm6.57 -1.36l1.77 0c0.01,0.01 0.02,0.01 0.02,0.03l0 5.65c0,0.01 -0.01,0.02 -0.02,0.02l-1.77 0c-0.02,0 -0.02,-0.01 -0.02,-0.02l0 -5.65c0,-0.02 0.01,-0.03 0.02,-0.03zm2.35 0l6.03 0c0.54,0 1.03,0.24 1.47,0.71 0.19,0.27 0.29,0.55 0.29,0.82l0 4.15c0,0.01 -0.01,0.02 -0.02,0.02l-1.77 0c-0.02,0 -0.03,-0.01 -0.03,-0.02l0 -3.3c0,-0.51 -0.22,-0.84 -0.65,-0.99 -0.1,-0.02 -0.19,-0.03 -0.28,-0.03l-3.25 0 0 4.32c0,0.01 -0.01,0.02 -0.02,0.02l-1.77 0c-0.03,0 -0.03,-0.01 -0.03,-0.02l0 -5.65c0,-0.02 0.02,-0.03 0.03,-0.03zm8.36 0l7.77 0c0.01,0.01 0.02,0.01 0.02,0.03l0 1.3c0,0.02 -0.01,0.03 -0.02,0.03l-2.97 0 0 4.32c0,0.01 -0.01,0.02 -0.03,0.02l-1.77 0c-0.01,0 -0.02,-0.01 -0.02,-0.02l0 -4.32 -2.98 0c-0.02,0 -0.02,-0.01 -0.02,-0.03l0 -1.3c0,-0.02 0.01,-0.03 0.02,-0.03zm10.09 0l4.23 0c0.64,0 1.16,0.25 1.55,0.74 0.2,0.26 0.28,0.54 0.28,0.83l0 2.57c0,0.58 -0.32,1.03 -0.96,1.37 -0.28,0.12 -0.57,0.19 -0.87,0.19l-4.18 0c-0.62,0 -1.13,-0.25 -1.54,-0.75 -0.18,-0.25 -0.26,-0.51 -0.26,-0.79l0 -2.61c0,-0.59 0.34,-1.07 1.06,-1.41 0.29,-0.09 0.51,-0.14 0.69,-0.14zm0.06 2.28l0 1.12c0,0.47 0.24,0.77 0.72,0.93 0.07,0.01 0.14,0.02 0.21,0.02l2.33 0c0.43,0 0.72,-0.22 0.89,-0.66 0.02,-0.07 0.03,-0.16 0.03,-0.25l0 -1.09c0,-0.48 -0.22,-0.81 -0.68,-0.97 -0.13,-0.02 -0.24,-0.02 -0.33,-0.02l-2.24 0c-0.43,0 -0.72,0.22 -0.89,0.65 -0.03,0.09 -0.04,0.19 -0.04,0.27zm6.57 -2.28l1.77 0c0.01,0.01 0.02,0.01 0.02,0.03l0 4.32 5.98 0c0.01,0 0.03,0.01 0.03,0.02l0 1.31c0,0.01 -0.02,0.02 -0.03,0.02l-7.77 0c-0.02,0 -0.02,-0.01 -0.02,-0.02l0 -5.65c0,-0.02 0.01,-0.03 0.02,-0.03zm10.09 0l4.23 0c0.64,0 1.16,0.25 1.55,0.74 0.2,0.26 0.29,0.54 0.29,0.83l0 2.57c0,0.58 -0.33,1.03 -0.97,1.37 -0.27,0.12 -0.57,0.19 -0.87,0.19l-4.18 0c-0.62,0 -1.13,-0.25 -1.54,-0.75 -0.17,-0.25 -0.26,-0.51 -0.26,-0.79l0 -2.61c0,-0.59 0.35,-1.07 1.06,-1.41 0.29,-0.09 0.52,-0.14 0.69,-0.14zm0.06 2.28l0 1.12c0,0.47 0.24,0.77 0.72,0.93 0.07,0.01 0.14,0.02 0.21,0.02l2.34 0c0.42,0 0.71,-0.22 0.88,-0.66 0.02,-0.07 0.03,-0.16 0.03,-0.25l0 -1.09c0,-0.48 -0.22,-0.81 -0.67,-0.97 -0.13,-0.02 -0.24,-0.02 -0.34,-0.02l-2.24 0c-0.43,0 -0.72,0.22 -0.89,0.65 -0.02,0.09 -0.04,0.19 -0.04,0.27zm8.32 -2.28l6.03 0c0.01,0.01 0.02,0.01 0.02,0.03l0 1.3c0,0.02 -0.01,0.03 -0.02,0.03l-5.06 0c-0.42,0 -0.73,0.23 -0.9,0.68 -0.01,0.1 -0.02,0.17 -0.02,0.21l0 1.16c0,0.43 0.2,0.72 0.63,0.88 0.07,0.05 0.18,0.06 0.29,0.06l3.25 0 0 -1.05c0.01,-0.02 0.01,-0.02 0.03,-0.02l1.78 0c0.01,0 0.02,0.01 0.02,0.02l0 2.38c0,0.01 -0.01,0.02 -0.02,0.02l-5.99 0c-0.56,0 -1.04,-0.21 -1.44,-0.62 -0.25,-0.3 -0.37,-0.61 -0.37,-0.94l0 -2.6c0,-0.57 0.33,-1.03 0.99,-1.36 0.29,-0.12 0.54,-0.18 0.78,-0.18zm6.61 0l1.78 0c0.01,0.01 0.02,0.01 0.02,0.03l0 5.65c0,0.01 -0.01,0.02 -0.02,0.02l-1.78 0c-0.02,0 -0.02,-0.01 -0.02,-0.02l0 -5.65c0,-0.02 0.01,-0.03 0.02,-0.03zm5.68 0l1.8 0c0.04,0.03 0.42,0.65 1.12,1.87 1.44,2.44 2.19,3.71 2.25,3.82l0 0.01 -2.09 0c-0.05,-0.05 -0.7,-1.13 -1.94,-3.26 -0.15,-0.26 -0.23,-0.39 -0.24,-0.39 -1.39,2.39 -2.12,3.59 -2.15,3.65l-2.1 0 0 -0.02c2.14,-3.66 3.26,-5.55 3.35,-5.68z"/>
  <path class="fil5" d="M15.22 5.56l1.7 0c0,0 0,0 0,0l0 0.29c0,0 0,0.01 0,0.01l-1.7 0c-0.01,0 -0.01,-0.01 -0.01,-0.01l0 -0.29c0,0 0,0 0.01,0zm0 0.49l1.7 0c0,0 0,0 0,0l0 0.26c0,0.01 0,0.01 0,0.01l-1.7 0c-0.01,0 -0.01,0 -0.01,-0.01l0 -0.26c0,0 0,0 0.01,0zm0 0.46l1.7 0c0,0 0,0 0,0.01l0 0.28c0,0 0,0.01 0,0.01l-1.7 0c-0.01,0 -0.01,-0.01 -0.01,-0.01l0 -0.28c0,-0.01 0,-0.01 0.01,-0.01zm2.21 -0.95l1.32 0c0,0 0.01,0 0.01,0l0 0.29c0,0 -0.01,0.01 -0.01,0.01l-1.21 0c-0.06,0 -0.1,0.04 -0.1,0.09 0,0.04 0.02,0.07 0.06,0.09 0.02,0 0.03,0.01 0.05,0.01l0.82 0c0.12,0 0.22,0.04 0.31,0.13 0.05,0.07 0.08,0.14 0.08,0.2l0 0.09c0,0.12 -0.07,0.22 -0.22,0.3 -0.05,0.02 -0.11,0.04 -0.18,0.04l-1.31 0c-0.01,0 -0.01,-0.01 -0.01,-0.01l0 -0.28c0,-0.01 0.01,-0.01 0.01,-0.01l1.2 0c0.05,0 0.08,-0.02 0.1,-0.06 0.01,-0.02 0.01,-0.03 0.01,-0.04 0,-0.04 -0.02,-0.06 -0.06,-0.08 -0.01,-0.01 -0.03,-0.01 -0.05,-0.01l-0.81 0c-0.13,0 -0.24,-0.05 -0.33,-0.16 -0.05,-0.05 -0.07,-0.11 -0.07,-0.18l0 -0.08c0,-0.12 0.07,-0.21 0.19,-0.29 0.07,-0.03 0.14,-0.05 0.2,-0.05zm1.45 0l1.31 0c0.14,0 0.25,0.05 0.34,0.17 0.04,0.05 0.06,0.11 0.06,0.16l0 0.23c0,0.12 -0.06,0.21 -0.18,0.29 -0.07,0.04 -0.14,0.05 -0.21,0.05l-0.93 0 0 0.34c0,0 0,0.01 0,0.01l-0.39 0c0,0 0,-0.01 0,-0.01l0 -1.24c0,0 0,0 0,0zm0.39 0.3l0 0.31 0.76 0c0.08,0 0.13,-0.04 0.15,-0.11 0.01,-0.02 0.01,-0.03 0.01,-0.05 0,-0.07 -0.03,-0.12 -0.09,-0.15 -0.02,0 -0.04,0 -0.06,0l-0.77 0zm1.44 -0.3l1.71 0c0,0 0,0 0,0l0 0.29c0,0 0,0.01 0,0.01l-1.31 0 0 0.19 0.97 0c0,0 0,0 0,0l0 0.26c0,0.01 0,0.01 0,0.01l-0.97 0 0 0.19 1.31 0c0,0 0,0 0,0.01l0 0.28c0,0 0,0.01 0,0.01l-1.71 0c0,0 0,-0.01 0,-0.01l0 -1.24c0,0 0,0 0,0zm2.22 0l1.32 0c0,0 0,0 0,0l0 0.29c0,0 0,0.01 0,0.01l-1.11 0c-0.1,0 -0.17,0.05 -0.2,0.16 0,0.02 0,0.03 0,0.05l0 0.24c0,0.09 0.04,0.15 0.14,0.19 0.01,0.01 0.04,0.01 0.06,0.01l1.11 0c0,0 0,0 0,0.01l0 0.28c0,0 0,0.01 0,0.01l-1.31 0c-0.14,0 -0.25,-0.06 -0.34,-0.17 -0.04,-0.06 -0.06,-0.11 -0.06,-0.17l0 -0.58c0,-0.1 0.06,-0.19 0.17,-0.27 0.08,-0.04 0.15,-0.06 0.22,-0.06zm1.45 0l0.39 0c0,0 0,0 0,0l0 1.24c0,0 0,0.01 0,0.01l-0.39 0c-0.01,0 -0.01,-0.01 -0.01,-0.01l0 -1.24c0,0 0.01,0 0.01,0zm1.24 0l0.4 0c0,0 0.09,0.14 0.24,0.41 0.32,0.53 0.48,0.81 0.5,0.83l0 0.01 -0.46 0c-0.01,-0.01 -0.06,-0.09 -0.15,-0.25l-0.65 0c-0.09,0.15 -0.14,0.23 -0.15,0.25l-0.46 0 0 -0.01c0.47,-0.8 0.71,-1.21 0.73,-1.24zm0.2 0.45l-0.15 0.25 0.3 0c-0.1,-0.16 -0.15,-0.25 -0.15,-0.25zm1.06 -0.45l0.39 0c0,0 0,0 0,0l0 0.95 1.31 0c0,0 0.01,0 0.01,0.01l0 0.28c0,0 -0.01,0.01 -0.01,0.01l-1.7 0c-0.01,0 -0.01,-0.01 -0.01,-0.01l0 -1.24c0,0 0,0 0.01,0zm1.83 0l0.39 0c0,0 0,0 0,0l0 1.24c0,0 0,0.01 0,0.01l-0.39 0c-0.01,0 -0.01,-0.01 -0.01,-0.01l0 -1.24c0,0 0.01,0 0.01,0zm0.9 0l1.32 0c0,0 0,0 0,0l0 0.29c0,0 0,0.01 0,0.01l-1.21 0c-0.07,0 -0.1,0.04 -0.1,0.09 0,0.04 0.02,0.07 0.06,0.09 0.01,0 0.03,0.01 0.04,0.01l0.82 0c0.12,0 0.22,0.04 0.31,0.13 0.06,0.07 0.08,0.14 0.08,0.2l0 0.09c0,0.12 -0.07,0.22 -0.21,0.3 -0.06,0.02 -0.12,0.04 -0.18,0.04l-1.32 0c0,0 0,-0.01 0,-0.01l0 -0.28c0,-0.01 0,-0.01 0,-0.01l1.21 0c0.05,0 0.08,-0.02 0.1,-0.06 0,-0.02 0,-0.03 0,-0.04 0,-0.04 -0.02,-0.06 -0.06,-0.08 -0.01,-0.01 -0.03,-0.01 -0.04,-0.01l-0.81 0c-0.14,0 -0.25,-0.05 -0.34,-0.16 -0.04,-0.05 -0.06,-0.11 -0.06,-0.18l0 -0.08c0,-0.12 0.06,-0.21 0.19,-0.29 0.07,-0.03 0.14,-0.05 0.2,-0.05zm1.45 0l1.7 0c0,0 0,0 0,0l0 0.29c0,0 0,0.01 0,0.01l-0.65 0 0 0.94c0,0 0,0.01 -0.01,0.01l-0.39 0c0,0 0,-0.01 0,-0.01l0 -0.94 -0.65 0c-0.01,0 -0.01,-0.01 -0.01,-0.01l0 -0.29c0,0 0,0 0.01,0zm2.56 0l0.39 0c0.01,0 0.09,0.14 0.25,0.41 0.31,0.53 0.48,0.81 0.49,0.83l0 0.01 -0.46 0c0,-0.01 -0.06,-0.09 -0.15,-0.25l-0.65 0c-0.09,0.15 -0.14,0.23 -0.15,0.25l-0.46 0 0 -0.01c0.47,-0.8 0.72,-1.21 0.74,-1.24zm0.2 0.45l-0.15 0.25 0.3 0c-0.1,-0.16 -0.15,-0.25 -0.15,-0.25zm1.44 -0.45l1.32 0c0,0 0,0 0,0l0 0.29c0,0 0,0.01 0,0.01l-1.21 0c-0.07,0 -0.1,0.04 -0.1,0.09 0,0.04 0.02,0.07 0.06,0.09 0.01,0 0.02,0.01 0.04,0.01l0.82 0c0.12,0 0.22,0.04 0.31,0.13 0.06,0.07 0.08,0.14 0.08,0.2l0 0.09c0,0.12 -0.07,0.22 -0.21,0.3 -0.06,0.02 -0.12,0.04 -0.18,0.04l-1.32 0c0,0 0,-0.01 0,-0.01l0 -0.28c0,-0.01 0,-0.01 0,-0.01l1.21 0c0.04,0 0.08,-0.02 0.1,-0.06 0,-0.02 0,-0.03 0,-0.04 0,-0.04 -0.02,-0.06 -0.06,-0.08 -0.01,-0.01 -0.03,-0.01 -0.04,-0.01l-0.81 0c-0.14,0 -0.25,-0.05 -0.34,-0.16 -0.04,-0.05 -0.06,-0.11 -0.06,-0.18l0 -0.08c0,-0.12 0.06,-0.21 0.19,-0.29 0.07,-0.03 0.14,-0.05 0.2,-0.05zm2.61 0l1.7 0c0,0 0.01,0 0.01,0l0 0.29c0,0 -0.01,0.01 -0.01,0.01l-1.31 0 0 0.19 0.97 0c0,0 0.01,0 0.01,0l0 0.26c0,0.01 -0.01,0.01 -0.01,0.01l-0.97 0 0 0.19 1.31 0c0,0 0.01,0 0.01,0.01l0 0.28c0,0 -0.01,0.01 -0.01,0.01l-1.7 0c-0.01,0 -0.01,-0.01 -0.01,-0.01l0 -1.24c0,0 0.01,0 0.01,0zm1.83 0l0.39 0c0.24,0.22 0.55,0.5 0.92,0.84l0 0 0 -0.84c0,0 0,0 0.01,0l0.38 0c0.01,0 0.01,0 0.01,0l0 1.24c0,0 0,0.01 -0.01,0.01l-0.39 0 -0.92 -0.84 0 0.83c0,0 0,0.01 0,0.01l-0.39 0c0,0 0,-0.01 0,-0.01l0 -1.24c0,0 0,0 0,0zm3 0l0.38 0c0.01,0 0.01,0 0.01,0l0 1.24c0,0 0,0.01 -0.01,0.01l-0.38 0c-0.01,0 -0.01,-0.01 -0.01,-0.01l0 -1.24c0,0 0,0 0.01,0zm0.51 0l0.4 0 0.53 0.62c0.36,-0.42 0.53,-0.62 0.53,-0.62l0.4 0c0.01,0 0.01,0 0.01,0l0 1.24c0,0 0,0.01 -0.01,0.01l-0.38 0c-0.01,0 -0.01,-0.01 -0.01,-0.01l0 -0.73 -0.53 0.61 -0.01 0c0,0 -0.18,-0.2 -0.54,-0.61l0 0.73c0,0 0,0.01 0,0.01l-0.39 0c0,0 0,-0.01 0,-0.01l0 -1.24c0,0 0,0 0,0zm1.99 0l1.31 0c0.14,0 0.25,0.05 0.34,0.17 0.04,0.05 0.06,0.11 0.06,0.16l0 0.23c0,0.12 -0.06,0.21 -0.18,0.29 -0.07,0.04 -0.14,0.05 -0.21,0.05l-0.93 0 0 0.34c0,0 0,0.01 0,0.01l-0.39 0c0,0 0,-0.01 0,-0.01l0 -1.24c0,0 0,0 0,0zm0.39 0.3l0 0.31 0.76 0c0.08,0 0.13,-0.04 0.15,-0.11 0.01,-0.02 0.01,-0.03 0.01,-0.05 0,-0.07 -0.03,-0.12 -0.09,-0.15 -0.02,0 -0.05,0 -0.06,0l-0.77 0zm1.44 -0.3l1.32 0c0.12,0 0.22,0.04 0.31,0.14 0.05,0.06 0.08,0.13 0.08,0.2l0 0.22c0,0.12 -0.06,0.22 -0.19,0.3l-0.05 0.02 0.24 0.36 0 0.01 -0.48 0c-0.01,-0.02 -0.09,-0.13 -0.23,-0.35l-0.6 0 0 0.34c0,0 -0.01,0.01 -0.01,0.01l-0.39 0c0,0 0,-0.01 0,-0.01l0 -1.24c0,0 0,0 0,0zm0.4 0.3l0 0.31 0.75 0c0.08,0 0.13,-0.04 0.16,-0.11 0,-0.02 0,-0.03 0,-0.05 0,-0.07 -0.03,-0.12 -0.09,-0.15 -0.02,0 -0.04,0 -0.06,0l-0.76 0zm1.43 -0.3l1.71 0c0,0 0,0 0,0l0 0.29c0,0 0,0.01 0,0.01l-1.31 0 0 0.19 0.97 0c0,0 0,0 0,0l0 0.26c0,0.01 0,0.01 0,0.01l-0.97 0 0 0.19 1.31 0c0,0 0,0 0,0.01l0 0.28c0,0 0,0.01 0,0.01l-1.71 0c0,0 0,-0.01 0,-0.01l0 -1.24c0,0 0,0 0,0zm2.22 0l1.32 0c0,0 0.01,0 0.01,0l0 0.29c0,0 -0.01,0.01 -0.01,0.01l-1.21 0c-0.07,0 -0.1,0.04 -0.1,0.09 0,0.04 0.02,0.07 0.06,0.09 0.01,0 0.03,0.01 0.04,0.01l0.83 0c0.11,0 0.22,0.04 0.3,0.13 0.06,0.07 0.09,0.14 0.09,0.2l0 0.09c0,0.12 -0.08,0.22 -0.22,0.3 -0.06,0.02 -0.12,0.04 -0.18,0.04l-1.31 0c-0.01,0 -0.01,-0.01 -0.01,-0.01l0 -0.28c0,-0.01 0,-0.01 0.01,-0.01l1.2 0c0.05,0 0.08,-0.02 0.1,-0.06 0.01,-0.02 0.01,-0.03 0.01,-0.04 0,-0.04 -0.02,-0.06 -0.06,-0.08 -0.02,-0.01 -0.03,-0.01 -0.05,-0.01l-0.81 0c-0.13,0 -0.25,-0.05 -0.34,-0.16 -0.04,-0.05 -0.06,-0.11 -0.06,-0.18l0 -0.08c0,-0.12 0.06,-0.21 0.19,-0.29 0.07,-0.03 0.14,-0.05 0.2,-0.05zm1.45 0l0.39 0c0,0 0,0 0,0l0 1.24c0,0 0,0.01 0,0.01l-0.39 0c-0.01,0 -0.01,-0.01 -0.01,-0.01l0 -1.24c0,0 0.01,0 0.01,0zm0.89 0l0.93 0c0.14,0 0.25,0.05 0.34,0.16 0.04,0.06 0.06,0.12 0.06,0.18l0 0.57c0,0.12 -0.07,0.22 -0.21,0.3 -0.06,0.02 -0.12,0.04 -0.19,0.04l-0.92 0c-0.13,0 -0.24,-0.06 -0.33,-0.17 -0.04,-0.05 -0.06,-0.11 -0.06,-0.17l0 -0.57c0,-0.13 0.08,-0.24 0.23,-0.31 0.06,-0.02 0.11,-0.03 0.15,-0.03zm0.02 0.5l0 0.24c0,0.11 0.05,0.17 0.15,0.21 0.02,0 0.04,0 0.05,0l0.51 0c0.09,0 0.16,-0.05 0.19,-0.14 0.01,-0.02 0.01,-0.04 0.01,-0.06l0 -0.24c0,-0.1 -0.05,-0.17 -0.15,-0.21 -0.02,0 -0.05,0 -0.07,0l-0.49 0c-0.09,0 -0.16,0.04 -0.2,0.14 0,0.02 0,0.04 0,0.06zm1.44 -0.5l0.39 0c0.24,0.22 0.54,0.5 0.91,0.84l0 0 0 -0.84c0.01,0 0.01,0 0.01,0l0.39 0c0,0 0,0 0,0l0 1.24c0,0 0,0.01 0,0.01l-0.4 0 -0.91 -0.84 0 0.83c0,0 0,0.01 -0.01,0.01l-0.38 0c-0.01,0 -0.01,-0.01 -0.01,-0.01l0 -1.24c0,0 0,0 0.01,0zm1.83 0.95l0.39 0 0 0c0,0.06 -0.04,0.11 -0.1,0.18 -0.09,0.08 -0.18,0.12 -0.29,0.12 -0.01,0 -0.01,-0.01 -0.01,-0.01l0 -0.28c0,-0.01 0.01,-0.01 0.01,-0.01zm1.68 -0.95l0.39 0 0.54 0.62c0.35,-0.42 0.53,-0.62 0.53,-0.62l0.4 0c0,0 0,0 0,0l0 1.24c0,0 0,0.01 0,0.01l-0.39 0c0,0 -0.01,-0.01 -0.01,-0.01l0 -0.73 -0.53 0.61 0 0c-0.01,0 -0.19,-0.2 -0.54,-0.61l0 0.73c0,0 0,0.01 -0.01,0.01l-0.38 0c-0.01,0 -0.01,-0.01 -0.01,-0.01l0 -1.24c0,0 0,0 0.01,0zm2.71 0l0.4 0c0.01,0 0.09,0.14 0.25,0.41 0.31,0.53 0.47,0.81 0.49,0.83l0 0.01 -0.46 0c-0.01,-0.01 -0.06,-0.09 -0.15,-0.25l-0.65 0c-0.09,0.15 -0.14,0.23 -0.15,0.25l-0.46 0 0 -0.01c0.47,-0.8 0.72,-1.21 0.73,-1.24zm0.2 0.45l-0.15 0.25 0.3 0c-0.09,-0.16 -0.14,-0.25 -0.15,-0.25zm1.06 -0.45l1.7 0c0.01,0 0.01,0 0.01,0l0 0.29c0,0 0,0.01 -0.01,0.01l-1.31 0 0 0.19 0.97 0c0.01,0 0.01,0 0.01,0l0 0.26c0,0.01 0,0.01 -0.01,0.01l-0.97 0 0 0.19 1.31 0c0.01,0 0.01,0 0.01,0.01l0 0.28c0,0 0,0.01 -0.01,0.01l-1.7 0c0,0 0,-0.01 0,-0.01l0 -1.24c0,0 0,0 0,0zm2.22 0l1.32 0c0,0 0,0 0,0l0 0.29c0,0 0,0.01 0,0.01l-1.21 0c-0.07,0 -0.1,0.04 -0.1,0.09 0,0.04 0.02,0.07 0.06,0.09 0.01,0 0.02,0.01 0.04,0.01l0.82 0c0.12,0 0.22,0.04 0.31,0.13 0.05,0.07 0.08,0.14 0.08,0.2l0 0.09c0,0.12 -0.07,0.22 -0.21,0.3 -0.06,0.02 -0.12,0.04 -0.18,0.04l-1.32 0c0,0 0,-0.01 0,-0.01l0 -0.28c0,-0.01 0,-0.01 0,-0.01l1.21 0c0.04,0 0.08,-0.02 0.1,-0.06 0,-0.02 0,-0.03 0,-0.04 0,-0.04 -0.02,-0.06 -0.06,-0.08 -0.01,-0.01 -0.03,-0.01 -0.04,-0.01l-0.81 0c-0.14,0 -0.25,-0.05 -0.34,-0.16 -0.04,-0.05 -0.06,-0.11 -0.06,-0.18l0 -0.08c0,-0.12 0.06,-0.21 0.19,-0.29 0.07,-0.03 0.13,-0.05 0.2,-0.05zm1.44 0l1.71 0c0,0 0,0 0,0l0 0.29c0,0 0,0.01 0,0.01l-0.65 0 0 0.94c0,0 0,0.01 -0.01,0.01l-0.39 0c0,0 0,-0.01 0,-0.01l0 -0.94 -0.66 0c0,0 0,-0.01 0,-0.01l0 -0.29c0,0 0,0 0,0zm1.84 0l1.31 0c0.12,0 0.23,0.04 0.31,0.14 0.06,0.06 0.09,0.13 0.09,0.2l0 0.22c0,0.12 -0.07,0.22 -0.2,0.3l-0.05 0.02 0.25 0.36 -0.01 0.01 -0.47 0c-0.01,-0.02 -0.09,-0.13 -0.23,-0.35l-0.61 0 0 0.34c0,0 0,0.01 0,0.01l-0.39 0c-0.01,0 -0.01,-0.01 -0.01,-0.01l0 -1.24c0,0 0.01,0 0.01,0zm0.39 0.3l0 0.31 0.76 0c0.08,0 0.13,-0.04 0.15,-0.11 0.01,-0.02 0.01,-0.03 0.01,-0.05 0,-0.07 -0.04,-0.12 -0.1,-0.15 -0.02,0 -0.04,0 -0.06,0l-0.76 0zm1.82 -0.3l0.93 0c0.14,0 0.25,0.05 0.34,0.16 0.04,0.06 0.06,0.12 0.06,0.18l0 0.57c0,0.12 -0.07,0.22 -0.21,0.3 -0.06,0.02 -0.13,0.04 -0.19,0.04l-0.92 0c-0.14,0 -0.25,-0.06 -0.34,-0.17 -0.04,-0.05 -0.06,-0.11 -0.06,-0.17l0 -0.57c0,-0.13 0.08,-0.24 0.24,-0.31 0.06,-0.02 0.11,-0.03 0.15,-0.03zm0.01 0.5l0 0.24c0,0.11 0.06,0.17 0.16,0.21 0.01,0 0.03,0 0.05,0l0.51 0c0.09,0 0.15,-0.05 0.19,-0.14 0.01,-0.02 0.01,-0.04 0.01,-0.06l0 -0.24c0,-0.1 -0.05,-0.17 -0.15,-0.21 -0.03,0 -0.05,0 -0.07,0l-0.49 0c-0.1,0 -0.16,0.04 -0.2,0.14 0,0.02 -0.01,0.04 -0.01,0.06zm1.83 -0.5l1.32 0c0,0 0,0 0,0l0 0.29c0,0 0,0.01 0,0.01l-1.21 0c-0.07,0 -0.1,0.04 -0.1,0.09 0,0.04 0.02,0.07 0.06,0.09 0.01,0 0.02,0.01 0.04,0.01l0.82 0c0.12,0 0.22,0.04 0.31,0.13 0.05,0.07 0.08,0.14 0.08,0.2l0 0.09c0,0.12 -0.07,0.22 -0.21,0.3 -0.06,0.02 -0.12,0.04 -0.18,0.04l-1.32 0c0,0 0,-0.01 0,-0.01l0 -0.28c0,-0.01 0,-0.01 0,-0.01l1.21 0c0.04,0 0.08,-0.02 0.1,-0.06 0,-0.02 0,-0.03 0,-0.04 0,-0.04 -0.02,-0.06 -0.06,-0.08 -0.01,-0.01 -0.03,-0.01 -0.04,-0.01l-0.81 0c-0.14,0 -0.25,-0.05 -0.34,-0.16 -0.04,-0.05 -0.06,-0.11 -0.06,-0.18l0 -0.08c0,-0.12 0.06,-0.21 0.19,-0.29 0.07,-0.03 0.13,-0.05 0.2,-0.05zm2.61 0l1.7 0c0,0 0.01,0 0.01,0l0 0.29c0,0 -0.01,0.01 -0.01,0.01l-1.31 0 0 0.19 0.97 0c0,0 0,0 0,0l0 0.26c0,0.01 0,0.01 0,0.01l-0.97 0 0 0.19 1.31 0c0,0 0.01,0 0.01,0.01l0 0.28c0,0 -0.01,0.01 -0.01,0.01l-1.7 0c-0.01,0 -0.01,-0.01 -0.01,-0.01l0 -1.24c0,0 0,0 0.01,0zm1.83 0l0.39 0c0.24,0.22 0.54,0.5 0.92,0.84l0 0 0 -0.84c0,0 0,0 0,0l0.39 0c0.01,0 0.01,0 0.01,0l0 1.24c0,0 0,0.01 -0.01,0.01l-0.39 0 -0.92 -0.84 0 0.83c0,0 0,0.01 0,0.01l-0.39 0c-0.01,0 -0.01,-0.01 -0.01,-0.01l0 -1.24c0,0 0.01,0 0.01,0zm2.99 0l1.32 0c0.12,0 0.22,0.04 0.31,0.14 0.06,0.06 0.08,0.13 0.08,0.2l0 0.57c0,0.11 -0.05,0.2 -0.17,0.27 -0.07,0.05 -0.15,0.07 -0.22,0.07l-1.32 0c0,0 0,-0.01 0,-0.01l0 -1.24c0,0 0,0 0,0zm0.4 0.3l0 0.65 0.71 0c0.09,0 0.16,-0.05 0.2,-0.14 0,-0.02 0,-0.04 0,-0.06l0 -0.25c0,-0.09 -0.04,-0.16 -0.13,-0.2 -0.02,0 -0.04,0 -0.07,0l-0.71 0zm1.44 -0.3l1.7 0c0,0 0.01,0 0.01,0l0 0.29c0,0 -0.01,0.01 -0.01,0.01l-1.31 0 0 0.19 0.97 0c0,0 0,0 0,0l0 0.26c0,0.01 0,0.01 0,0.01l-0.97 0 0 0.19 1.31 0c0,0 0.01,0 0.01,0.01l0 0.28c0,0 -0.01,0.01 -0.01,0.01l-1.7 0c-0.01,0 -0.01,-0.01 -0.01,-0.01l0 -1.24c0,0 0,0 0.01,0zm1.83 0l1.7 0c0.01,0 0.01,0 0.01,0l0 0.29c0,0 0,0.01 -0.01,0.01l-0.65 0 0 0.94c0,0 0,0.01 0,0.01l-0.39 0c-0.01,0 -0.01,-0.01 -0.01,-0.01l0 -0.94 -0.65 0c-0.01,0 -0.01,-0.01 -0.01,-0.01l0 -0.29c0,0 0.01,0 0.01,0zm2.56 0l0.4 0c0,0 0.09,0.14 0.24,0.41 0.32,0.53 0.48,0.81 0.49,0.83l0 0.01 -0.46 0c0,-0.01 -0.05,-0.09 -0.15,-0.25l-0.65 0c-0.08,0.15 -0.13,0.23 -0.14,0.25l-0.46 0 0 -0.01c0.47,-0.8 0.71,-1.21 0.73,-1.24zm0.2 0.45l-0.15 0.25 0.3 0c-0.1,-0.16 -0.15,-0.25 -0.15,-0.25zm1.06 -0.45l0.38 0c0.01,0 0.01,0 0.01,0l0 0.95 1.31 0c0,0 0,0 0,0.01l0 0.28c0,0 0,0.01 0,0.01l-1.7 0c-0.01,0 -0.01,-0.01 -0.01,-0.01l0 -1.24c0,0 0,0 0.01,0zm1.83 0l0.39 0c0,0 0,0 0,0l0 0.95 1.31 0c0,0 0.01,0 0.01,0.01l0 0.28c0,0 -0.01,0.01 -0.01,0.01l-1.7 0c-0.01,0 -0.01,-0.01 -0.01,-0.01l0 -1.24c0,0 0.01,0 0.01,0zm1.83 0l1.7 0c0.01,0 0.01,0 0.01,0l0 0.29c0,0 0,0.01 -0.01,0.01l-1.31 0 0 0.19 0.97 0c0.01,0 0.01,0 0.01,0l0 0.26c0,0.01 0,0.01 -0.01,0.01l-0.97 0 0 0.19 1.31 0c0.01,0 0.01,0 0.01,0.01l0 0.28c0,0 0,0.01 -0.01,0.01l-1.7 0c0,0 0,-0.01 0,-0.01l0 -1.24c0,0 0,0 0,0zm1.83 0.95l0.39 0c0,0 0.01,0 0.01,0.01l0 0.28c0,0 -0.01,0.01 -0.01,0.01l-0.39 0c0,0 0,-0.01 0,-0.01l0 -0.28c0,-0.01 0,-0.01 0,-0.01z"/>
 </g>
</svg>
