<?xml version="1.0" encoding="UTF-8"?>
<!DOCTYPE svg PUBLIC "-//W3C//DTD SVG 1.1//EN" "http://www.w3.org/Graphics/SVG/1.1/DTD/svg11.dtd">
<!-- Creator: CorelDRAW -->
<svg xmlns="http://www.w3.org/2000/svg" xml:space="preserve" width="552px" height="158px" version="1.1" style="shape-rendering:geometricPrecision; text-rendering:geometricPrecision; image-rendering:optimizeQuality; fill-rule:evenodd; clip-rule:evenodd"
viewBox="0 0 486.23 138.97"
 xmlns:xlink="http://www.w3.org/1999/xlink"
 xmlns:xodm="http://www.corel.com/coreldraw/odm/2003">
 <defs>
  <style type="text/css">
   <![CDATA[
    .str0 {stroke:#FEFEFE;stroke-width:1.76;stroke-miterlimit:22.9256;stroke-opacity:0.050980}
    .str1 {stroke:#FEFEFE;stroke-width:1.76;stroke-miterlimit:22.9256}
    .str2 {stroke:#FEFEFE;stroke-width:1.76;stroke-miterlimit:22.9256}
    .str3 {stroke:#373435;stroke-width:0.79;stroke-miterlimit:22.9256}
    .fil3 {fill:none;fill-rule:nonzero}
    .fil1 {fill:#FEFEFE}
    .fil7 {fill:#FEFEFE}
    .fil5 {fill:#0A7BA3;fill-rule:nonzero}
    .fil2 {fill:#103A4E;fill-rule:nonzero}
    .fil6 {fill:#110363;fill-rule:nonzero}
    .fil0 {fill:#FEFEFE;fill-rule:nonzero;fill-opacity:0.050980}
    .fil4 {fill:#FEFEFE}
   ]]>
  </style>
 </defs>
 <g id="Capa_x0020_1">
  <metadata id="CorelCorpID_0Corel-Layer"/>
  <g id="_2285330434816">
   <path class="fil0 str0" d="M58.04 74.59l-0.05 0.05 7.3 0.64c2.33,0.21 5.16,0.46 8.43,0.75 4.28,0.32 8.31,0.69 12.06,1.1 10.65,1.15 18.03,2.7 24.59,4.08 5.98,1.25 11.66,2.44 18.34,3.06 19.46,1.78 34.57,1.71 47.77,1.65 6.04,-0.02 12.01,-0.05 18.01,0.11 2.53,0.04 4.84,0.09 7.09,0.15 14.42,0.19 30.79,2.5 47.59,4.86 6.98,0.99 14.09,1.99 20.67,2.77 5.79,0.69 10.03,0.91 14.4,1.13 1.73,0.09 3.51,0.18 5.37,0.3 3.86,0.29 6.23,0.49 6.26,0.5l-0.13 -0.05c-0.02,0 -2.4,-0.21 -6.28,-0.49 -1.87,-0.13 -3.65,-0.22 -5.39,-0.31 -4.34,-0.22 -8.56,-0.43 -14.28,-1.11 -6.54,-0.79 -13.64,-1.79 -20.6,-2.77 -16.87,-2.38 -33.29,-4.69 -47.83,-4.89 -2.24,-0.05 -4.56,-0.1 -7.09,-0.15 -6.02,-0.16 -12,-0.13 -18.05,-0.11 -13.16,0.06 -28.21,0.12 -47.5,-1.64 -6.47,-0.6 -12.08,-1.78 -17.99,-3.02 -6.61,-1.38 -14.04,-2.94 -24.84,-4.11 -3.79,-0.42 -7.89,-0.79 -12.18,-1.11 -3.23,-0.29 -6.06,-0.54 -8.38,-0.75l-7.29 -0.64z"/>
   <path class="fil0 str0" d="M60.25 72.04l-0.04 0.05 25.27 2.34c1.54,0.15 3.25,0.29 5.05,0.44 4.45,0.37 8.98,0.75 10.53,1.11 35.39,6.39 66.65,7.42 92.09,8.25l1.6 0.06c2.5,0.13 4.79,0.26 6.98,0.4 15.69,0.87 33.68,3.37 51.8,6 9.2,1.31 14.82,1.5 20.52,1.69 3.81,0.13 7.63,0.26 12.6,0.76 1.87,0.16 2.91,0.26 2.92,0.26l-0.11 -0.04c-0.01,0 -1.05,-0.1 -2.92,-0.27 -5.01,-0.5 -8.85,-0.63 -12.67,-0.75 -5.66,-0.19 -11.24,-0.38 -20.32,-1.68 -18.16,-2.64 -36.2,-5.15 -51.97,-6.02 -2.19,-0.14 -4.49,-0.27 -7.02,-0.41l-1.61 -0.05c-25.35,-0.84 -56.46,-1.87 -91.55,-8.2 -1.66,-0.39 -6.32,-0.78 -10.91,-1.16 -1.78,-0.15 -3.48,-0.29 -5,-0.43l-25.24 -2.35z"/>
   <path class="fil0 str0" d="M62.24 69.74l-0.03 0.04 24.03 2.33c3.59,0.34 7.5,0.72 11.66,1.13 39.46,4.72 69.34,7.57 96.47,9.34 2.7,0.24 5.48,0.5 8.22,0.75 14.37,1.38 28.51,2.89 43.29,4.62 5.92,0.67 10.58,0.98 15.37,1.29 2.03,0.13 4.11,0.27 6.25,0.43 2.81,0.28 5.03,0.49 7.63,0.72l8.55 0.83 -0.11 -0.04 -8.55 -0.83c-2.6,-0.23 -4.81,-0.44 -7.64,-0.72 -2.16,-0.16 -4.24,-0.3 -6.28,-0.43 -4.77,-0.32 -9.41,-0.62 -15.27,-1.29 -14.78,-1.73 -28.93,-3.24 -43.32,-4.62 -2.74,-0.26 -5.52,-0.51 -8.26,-0.76 -27.09,-1.77 -56.89,-4.61 -96.29,-9.33 -4.21,-0.41 -8.12,-0.79 -11.71,-1.13l-24.01 -2.33z"/>
   <path class="fil0 str0" d="M64.06 67.65l-0.03 0.03 50.41 5.06c1.97,0.2 3.97,0.4 5.99,0.6 19.09,2.04 36.25,3.71 53.29,5.38 2.73,0.26 5.46,0.53 8.18,0.8 2.45,0.24 4.89,0.49 7.31,0.73 4.77,0.48 9.46,0.95 14.07,1.41 2.28,0.23 4.54,0.45 6.78,0.68 14.35,1.48 27.24,2.77 39.45,3.95l28.63 2.87 -0.1 -0.03 -28.62 -2.88c-12.21,-1.18 -25.08,-2.47 -39.42,-3.95 -2.25,-0.22 -4.51,-0.45 -6.78,-0.68 -4.62,-0.46 -9.3,-0.93 -14.07,-1.41 -2.42,-0.24 -4.85,-0.49 -7.31,-0.73 -2.72,-0.27 -5.45,-0.54 -8.18,-0.8 -17.02,-1.67 -34.16,-3.34 -53.23,-5.37 -2.03,-0.21 -4.04,-0.41 -6,-0.61l-50.37 -5.05z"/>
   <path class="fil1 str1" d="M294.78 9.51c1.6,-4.57 5.88,-7.78 11.1,-7.78l16.74 0c4.97,0 9.17,2.64 11.76,6.83l8.34 13.49 0 -8.49c0,-6.63 5.16,-11.83 11.83,-11.83l14.38 0c1.88,0 3.68,0.45 5.3,1.25 1.74,-0.99 3.8,-1.55 6.06,-1.55l26.83 0c16.79,0 32.24,9.61 41,23.72 4.58,7.38 6.86,15.59 6.86,24.27 0,25.98 -21.89,47.89 -47.86,47.89l-26.83 0c-1.94,0 -3.74,-0.41 -5.31,-1.16 -1.76,0.94 -3.82,1.46 -6.05,1.46l-15.14 0c-5,0 -9.26,-2.59 -11.84,-6.84l-9.6 -15.78 0 10.84c0,6.89 -5.23,11.78 -12.04,11.78l-14.43 0c-2.27,0 -4.34,-0.56 -6.09,-1.56 -1.86,1.21 -4.13,1.89 -6.63,1.89l-10.58 0c-3.14,0 -5.63,-0.98 -7.54,-2.7 -4.49,2.23 -9.5,3.38 -14.86,3.38 -16.16,0 -29.74,-8.96 -36.65,-22.14l0 8.87c0,6.77 -5.01,11.79 -11.78,11.79 -6.34,0 -13.46,-0.36 -19.49,-2.36 -6.49,-2.16 -10.4,-6 -11.77,-10.57 -7.53,9.15 -18.88,14.97 -31.9,14.97 -5.25,0 -10.15,-1.1 -14.57,-3.24 -2.14,1.64 -4.83,2.56 -7.83,2.56l-10.58 0c-3.26,0 -6.11,-1.16 -8.18,-3.11 -2.15,2.41 -5.35,3.87 -9.04,3.87l-10.8 0c-6.8,0 -11.87,-2.81 -14.51,-7.99 -1.87,4.97 -5.6,7.99 -11.27,7.99l-13.13 0c-4.91,0 -8.62,-2.9 -10.75,-7 -1.79,4.24 -5.73,7 -10.79,7l-11.67 0c-4.48,0 -8.51,-1.56 -11.32,-5.19 -3.31,-4.27 -3.6,-9.84 -3.05,-15l7.11 -66.61c0.67,-6.33 5.29,-10.88 11.76,-10.88l18.53 0c5.93,0 9.5,3.49 11.31,8.83 0.04,0.1 0.07,0.19 0.1,0.3l5.34 17.58 5.34 -17.58c0.03,-0.11 0.06,-0.2 0.09,-0.3 1.82,-5.34 5.39,-8.83 11.31,-8.83l18.53 0c6.48,0 11.09,4.55 11.77,10.88l1.57 14.73c0.02,-0.81 0.12,-1.61 0.29,-2.39 0.6,-5.84 4.73,-10.89 9.29,-14.33 5.92,-4.47 13.3,-7 20.62,-7.85 8.18,-0.96 18.45,-0.6 24.47,5.9 0.54,0.6 1.03,1.21 1.46,1.85 0.08,-0.66 0.22,-1.32 0.42,-1.97 1.46,-4.62 5.69,-7.52 10.48,-7.52l17.82 0c5.33,0 9.15,2.87 11.53,7.49 0.06,0.11 0.1,0.21 0.16,0.32l3.57 7.62 3.53 -7.59c0.05,-0.12 0.1,-0.22 0.17,-0.35 2.38,-4.62 6.22,-7.49 11.55,-7.49l18.02 0c5.71,0 10.56,3.83 11.22,9.44 0.5,-0.82 1.09,-1.61 1.78,-2.35 6.01,-6.51 16.28,-6.87 24.46,-5.91 7.1,0.83 14.25,3.23 20.08,7.45z"/>
   <path class="fil2 str2" d="M203.78 74.62c-3.76,-2.97 -7.08,-5.66 -10.75,-1.59 -13.04,14.45 12.72,14.6 18.72,14.6 1.51,0 2.27,-0.76 2.27,-2.28l0 -29.3 24.69 -43.32c0.21,-0.44 0.32,-0.82 0.32,-1.09 0,-0.82 -0.7,-1.25 -1.79,-1.25l-18.02 0c-1.47,0 -2.24,0.66 -3.1,2.34l-12.1 26.04 -12.23 -26.04c-0.87,-1.68 -1.61,-2.34 -3.08,-2.34l-17.82 0c-1.37,0 -2.15,1.11 -0.72,3.64l23.79 42.14 9.82 18.45z"/>
   <path class="fil2 str2" d="M113.36 86.76c0,1.5 0.73,2.23 2.25,2.23l10.58 0c4.39,0 3.42,-5.55 4.2,-7.72 4.58,5.39 10.68,8.4 18.2,8.4 18.13,0 32.03,-14.57 32.03,-32.73 0,-6.36 -1.46,-12.03 -4.42,-16.97 -5.85,-9.74 -16.13,-15.67 -27.61,-15.67 -6.64,0 -12.62,2.72 -17.26,7.52 -0.24,-3.2 -1.69,-4.49 -5.8,-6.47 2.08,-1.48 4.39,-2.97 7.06,-3.81 7.12,-2.25 13.04,4.32 18.21,0.45 4.42,-3.31 2.78,-12.08 -15.63,-9.93 -13.75,1.61 -21.72,9.61 -21.59,14.32 -0.14,0.33 -0.22,0.72 -0.22,1.2l0 59.18zm6.08 -16.84c0.39,-0.57 1.17,-0.72 1.74,-0.33 0.57,0.39 0.72,1.17 0.33,1.74 -0.39,0.58 -1.17,0.72 -1.74,0.33 -0.58,-0.39 -0.72,-1.17 -0.33,-1.74zm6.98 1.13c0.39,-0.57 1.17,-0.72 1.74,-0.32 0.57,0.39 0.72,1.17 0.33,1.74 -0.39,0.57 -1.17,0.72 -1.74,0.32 -0.58,-0.39 -0.72,-1.17 -0.33,-1.74zm-4.86 5.18c0.39,-0.57 1.17,-0.71 1.75,-0.32 0.57,0.39 0.71,1.17 0.32,1.74 -0.39,0.57 -1.17,0.72 -1.74,0.33 -0.57,-0.39 -0.72,-1.18 -0.33,-1.75zm46.66 -18.16c0,12.01 -7.46,21.75 -16.67,21.75 -9.21,0 -16.67,-9.74 -16.67,-21.75 0,-12.01 7.46,-21.75 16.67,-21.75 9.21,0 16.67,9.74 16.67,21.75z"/>
   <path class="fil2 str2" d="M44.92 83.18c0.55,1.91 1.23,6.58 3.76,6.58l13.13 0c1.54,0 1.98,-0.45 2.58,-2.44l12.35 -41.42 3.9 37.61c0.62,6 4.26,6.25 6.95,6.25l10.8 0c1.61,0 2.5,-0.78 2.33,-2.33l-7.88 -73.96c-0.16,-1.61 -0.83,-2.38 -2.32,-2.38l-18.53 0c-1.37,0 -1.69,0.56 -2.31,2.38l-14.43 47.54 -14.44 -47.54c-0.62,-1.82 -0.93,-2.38 -2.31,-2.38l-18.53 0c-1.48,0 -2.14,0.77 -2.31,2.38l-7.1 66.6c-0.95,8.89 2.26,9.69 4.91,9.69l11.67 0c1.48,0 2.14,-0.73 2.31,-2.33l4.46 -42.59 11.01 38.34z"/>
   <path class="fil2 str2" d="M153.99 40.82c-4.39,0 -8.25,2.97 -10.46,7.45 -1.47,2.96 -0.08,6.56 2.96,7.86l3.84 1.64 -3.32 1.6c-1.36,0.65 -2.34,1.75 -2.86,3.02 8.66,-0.74 15.96,1.84 20.12,3.81 1.3,-2.49 2.09,-5.47 2.16,-8.69 -0.05,-2.34 -0.38,-4.6 -0.95,-6.7 -1.87,-5.87 -6.31,-9.99 -11.49,-9.99z"/>
   <g>
    <path class="fil3 str3" d="M166.89 66.61c-5.36,-2.7 -17.55,-7.26 -31.19,-1.75"/>
   </g>
   <path class="fil2 str2" d="M295.4 86.2c0,1.5 -0.73,2.23 -2.24,2.23l-10.58 0c-1.3,0 -1.61,-0.41 -2.23,-2.23l-1.98 -5.49c-4.57,5.39 -10.68,8.4 -18.19,8.4 -18.13,0 -32.04,-14.57 -32.04,-32.73 0,-6.35 1.46,-12.02 4.42,-16.96 5.86,-9.75 16.14,-15.67 27.62,-15.67 6.63,0 12.62,2.71 17.26,7.52 1.36,-3.54 1.72,-4.45 5.79,-6.48 -2.07,-1.48 -4.38,-2.97 -7.05,-3.81 -7.13,-2.25 -13.04,4.32 -18.22,0.45 -4.42,-3.31 -2.77,-12.08 15.64,-9.93 13.74,1.61 21.71,9.61 21.58,14.33 0.15,0.32 0.22,0.72 0.22,1.19l0 59.18zm-6.07 -16.84c-0.39,-0.57 -1.18,-0.72 -1.75,-0.33 -0.57,0.4 -0.71,1.18 -0.32,1.75 0.39,0.57 1.17,0.72 1.74,0.32 0.57,-0.39 0.72,-1.17 0.33,-1.74zm-6.98 1.13c-0.4,-0.57 -1.18,-0.71 -1.75,-0.32 -0.57,0.39 -0.71,1.17 -0.32,1.74 0.39,0.57 1.17,0.72 1.74,0.33 0.57,-0.4 0.72,-1.18 0.33,-1.75zm4.85 5.19c-0.39,-0.57 -1.17,-0.72 -1.74,-0.33 -0.57,0.39 -0.72,1.17 -0.33,1.74 0.4,0.58 1.18,0.72 1.75,0.33 0.57,-0.39 0.72,-1.17 0.32,-1.74zm-46.66 -18.17c0,12.01 7.47,21.75 16.68,21.75 9.2,0 16.67,-9.74 16.67,-21.75 0,-12.01 -7.47,-21.74 -16.67,-21.74 -9.21,0 -16.68,9.73 -16.68,21.74z"/>
   <path class="fil2 str2" d="M254.78 40.26c4.39,0 8.24,2.97 10.46,7.45 1.46,2.97 0.08,6.56 -2.96,7.86l-3.84 1.64 3.32 1.6c1.36,0.65 2.33,1.75 2.85,3.03 -8.66,-0.75 -15.96,1.83 -20.11,3.8 -1.3,-2.48 -2.09,-5.47 -2.16,-8.68 0.04,-2.35 0.37,-4.6 0.94,-6.71 1.88,-5.86 6.32,-9.99 11.5,-9.99z"/>
   <g>
    <path class="fil3 str3" d="M241.88 66.05c5.35,-2.7 17.55,-7.26 31.18,-1.75"/>
   </g>
   <path class="fil2 str2" d="M378.03 85.55c0,1.5 0.76,2.25 2.26,2.25l26.83 0c20.68,0 38.35,-17.6 38.35,-38.38 0,-6.9 -1.83,-13.33 -5.43,-19.26 -7.07,-11.26 -19.42,-19.23 -32.92,-19.23l-26.83 0c-1.5,0 -2.26,0.76 -2.26,2.33l0 72.29zm30.36 -52.91c8.8,0 15.94,7.14 15.94,15.95 0,8.8 -7.14,15.94 -15.94,15.94 -8.81,0 -15.95,-7.14 -15.95,-15.94 0,-8.81 7.14,-15.95 15.95,-15.95z"/>
   <path class="fil2 str2" d="M350.07 85.83c0.91,1.52 2.16,2.28 3.72,2.28l15.14 0c1.68,0 2.54,-0.76 2.54,-2.28l0 -72.27c0,-1.29 -1.41,-2.32 -2.54,-2.32l-14.38 0c-1.51,0 -2.32,1.03 -2.32,2.32l0 41.94 -25.94 -41.94c-0.96,-1.57 -2.21,-2.32 -3.67,-2.32l-16.74 0c-1.47,0 -2.28,1.03 -2.28,2.32l0 72.27c0,1.52 0.76,2.28 2.28,2.28l14.43 0c1.67,0 2.53,-0.76 2.53,-2.28l0 -44.78 27.23 44.78z"/>
   <g>
    <path class="fil4" d="M450.04 111.35c0.06,-0.58 0.14,-1.17 0.23,-1.75 0.01,-0.06 0.02,-0.11 0.03,-0.18 0.18,-1.01 0.49,-1.99 0.93,-2.91 0.02,-0.08 0.04,-0.16 0.06,-0.24 0.14,-0.59 0.31,-1.18 0.49,-1.77 -0.15,-0.22 -0.31,-0.45 -0.46,-0.68 -0.59,-0.91 -1.15,-1.86 -1.63,-2.83 -0.3,-0.62 -0.5,-1.17 -0.68,-1.91 -0.09,-0.18 -0.16,-0.34 -0.24,-0.53 -0.12,-0.29 -0.25,-0.58 -0.38,-0.87 -0.16,-0.36 -0.3,-0.73 -0.43,-1.1 -0.09,-0.18 -0.17,-0.35 -0.26,-0.53 -0.46,-1 -0.7,-1.94 -0.77,-3.01 -0.17,-0.41 -0.34,-0.83 -0.49,-1.25 -0.37,-1.02 -0.63,-2.07 -0.75,-3.15 -0.17,-1.52 -0.03,-3.05 0.39,-4.52 0.56,-1.89 1.63,-3.54 3.07,-4.87l0.13 -0.13c2.4,-2.47 5.83,-3.25 9.07,-2.07l0.46 0.17c0.07,0.03 0.14,0.05 0.21,0.08 0.05,0.02 0.1,0.04 0.15,0.06 0.04,0.01 0.07,0.02 0.1,0.03 0.27,0.08 0.54,0.16 0.81,0.24 0.46,0.13 0.92,0.27 1.38,0.41 0.43,0.15 0.87,0.3 1.31,0.45 0.14,0.05 0.27,0.09 0.41,0.15 1.7,-2.09 3.88,-3.72 6.45,-4.78l0.54 -0.24c3.49,-1.56 7.47,-0.6 9.89,2.14l0.05 0.02c1.54,0.62 2.71,1.52 3.7,2.84 0.75,1.02 1.33,2.09 1.69,3.27 0.71,1.57 0.9,3.21 0.58,4.97 -0.35,1.9 -0.98,3.72 -2.11,5.31 -0.39,0.56 -0.81,1.09 -1.22,1.57 -0.09,0.2 -0.18,0.39 -0.29,0.59l-0.26 0.47c-0.11,0.2 -0.22,0.39 -0.34,0.58 -0.36,1.37 -1.05,2.6 -1.98,3.6 -0.12,0.39 -0.28,0.77 -0.48,1.16l-0.19 0.37c-0.03,0.08 -0.07,0.15 -0.11,0.22 -0.05,0.18 -0.1,0.35 -0.15,0.52 -0.14,1.36 -0.62,2.68 -1.43,3.87 -0.14,0.47 -0.3,0.92 -0.46,1.38 -0.17,0.46 -0.36,0.91 -0.58,1.35 -0.07,0.26 -0.15,0.51 -0.23,0.74 -0.12,0.39 -0.27,0.77 -0.44,1.14 -0.31,1.55 -0.83,3.04 -1.49,4.47 -0.07,0.34 -0.16,0.66 -0.26,0.99 -0.09,0.3 -0.19,0.61 -0.31,0.91 -0.07,0.45 -0.18,0.89 -0.33,1.35 -0.32,0.94 -0.73,1.83 -1.25,2.67 -0.2,0.31 -0.4,0.62 -0.61,0.92 -0.06,0.08 -0.11,0.15 -0.16,0.23 -0.77,1.21 -1.7,2.1 -2.96,2.82l-0.66 0.38c-1.23,0.7 -2.43,1.05 -3.84,1.12 -5.91,0.29 -10.98,-2.67 -13.37,-8.12 -0.39,-0.89 -0.6,-1.7 -0.68,-2.67l-0.05 -0.46c-0.06,-0.7 -0.04,-1.3 0.06,-2 0.05,-0.33 0.09,-0.66 0.14,-0.99zm-75.4 7.93c0.06,-0.36 0.13,-0.72 0.21,-1.09 0.19,-0.9 0.39,-1.79 0.58,-2.69 0.27,-1.21 0.54,-2.41 0.82,-3.62 0.31,-1.32 0.62,-2.63 0.95,-3.95 0.31,-1.27 0.65,-2.54 1.02,-3.79 0.34,-1.16 0.72,-2.33 1.16,-3.33 0.07,-0.18 0.19,-0.48 0.29,-0.78 0.16,-0.45 0.33,-0.89 0.5,-1.33 0.2,-0.51 0.39,-1.02 0.59,-1.53 0.38,-0.99 0.84,-1.94 1.41,-2.84 0.6,-0.96 1.32,-1.84 2.06,-2.56 0.86,-0.89 1.94,-1.68 3.1,-2.34 1.87,-1.07 3.82,-1.38 5.93,-0.95 0.76,0.16 1.51,0.37 2.24,0.64 0.05,0.02 0.1,0.04 0.15,0.06 0.71,0.28 1.39,0.63 2.03,1.04 1.68,0.32 3.2,1.14 4.48,2.45 0.18,0.19 0.36,0.39 0.53,0.58 0.05,0.05 0.11,0.1 0.16,0.16 0.14,0.14 0.28,0.28 0.42,0.42 0.09,-0.12 0.18,-0.25 0.26,-0.38 0.11,-0.15 0.19,-0.49 0.23,-0.67 0.38,-1.84 1.21,-3.31 2.58,-4.58 1.46,-1.35 3.26,-2.24 5.21,-2.6 1.45,-0.27 2.92,-0.26 4.36,0.02 0.72,0.14 1.43,0.31 2.12,0.52 0.05,0.01 0.1,0.03 0.14,0.04 0.44,0.12 0.87,0.28 1.29,0.46 0.99,0.43 1.85,1 2.57,1.69 1.08,0.61 2.02,1.43 2.78,2.4 1.56,1.13 2.65,2.72 3.15,4.56 0.02,0.04 0.05,0.09 0.07,0.13 1.38,2.24 1.66,4.78 0.82,7.19 -0.01,0.16 -0.01,0.31 -0.03,0.46 -0.01,0.21 -0.03,0.43 -0.05,0.64 0.04,0.19 0.08,0.39 0.12,0.59 0.15,0.83 0.25,1.66 0.29,2.5 0.05,0.93 0.01,1.87 -0.11,2.79 -0.01,0.03 -0.01,0.07 -0.02,0.1 0.38,2.36 0.44,4.76 0.09,7.12 -0.3,2.04 -0.68,4.06 -1.17,6.06 -0.06,0.21 -0.11,0.43 -0.17,0.65 -0.48,2.59 -1.99,4.67 -4.31,5.91 -0.55,0.48 -1.13,0.92 -1.69,1.27 -1.16,0.77 -2.53,1.31 -3.97,1.58 -1.86,0.34 -3.55,0.12 -5.25,-0.69 -3.08,-1.48 -5.19,-3.94 -6.49,-6.89 -1.28,0.56 -2.62,0.97 -4.01,1.23 -0.99,0.19 -1.98,0.28 -2.94,0.27 -0.15,0.55 -0.36,1.08 -0.61,1.58 -0.07,0.62 -0.19,1.22 -0.38,1.81 -0.16,0.58 -0.32,1.16 -0.51,1.72 -0.35,1.05 -0.81,2.05 -1.42,2.97 -0.03,0.05 -0.06,0.08 -0.09,0.13 -0.9,1.31 -2.07,2.4 -3.47,3.16 -1.01,0.55 -2.1,0.93 -3.24,1.14 -0.83,0.16 -1.69,0.22 -2.54,0.25 -1.98,0.08 -3.7,-0.44 -5.31,-1.6 -1.47,-1.06 -2.67,-2.41 -3.67,-3.91 -0.84,-1.27 -1.54,-2.63 -2.1,-4.05 -0.56,-1.42 -0.98,-2.91 -1.23,-4.42 -0.33,-1.89 -0.33,-3.82 0.07,-5.7z"/>
   </g>
   <g>
    <path class="fil5" d="M463.53 117.06c-2.49,0.12 -4.2,-0.89 -5.13,-3.02l-0.05 -0.46c0.06,-0.35 0.11,-0.75 0.17,-1.19 0.05,-0.49 0.12,-0.98 0.19,-1.47 0.09,-0.48 0.29,-0.94 0.6,-1.36 0.04,-0.27 0.13,-0.68 0.27,-1.23 0.14,-0.55 0.39,-1.39 0.75,-2.51 0.29,-0.88 0.53,-1.58 0.7,-2.09 0.17,-0.53 0.33,-0.92 0.44,-1.2 -0.37,-0.44 -0.84,-0.85 -1.42,-1.23 -0.6,-0.74 -1.12,-1.46 -1.58,-2.17 -0.46,-0.69 -0.82,-1.33 -1.11,-1.91 -0.15,-0.65 -0.38,-1.3 -0.7,-1.96 -0.15,-0.34 -0.3,-0.68 -0.45,-1.02 -0.15,-0.35 -0.25,-0.71 -0.33,-1.09 -0.14,-0.18 -0.29,-0.41 -0.42,-0.7l-0.02 -0.5c0.1,-0.25 0.08,-0.55 -0.06,-0.91 -0.14,-0.36 -0.29,-0.73 -0.47,-1.09 -0.16,-0.34 -0.3,-0.71 -0.44,-1.09 -0.15,-0.39 -0.24,-0.78 -0.28,-1.16 -0.05,-0.4 -0.02,-0.79 0.1,-1.18 0.11,-0.39 0.36,-0.75 0.76,-1.08l0.36 -0.36 0.46 0.17c0.34,0.13 0.66,0.25 0.96,0.33 0.3,0.09 0.6,0.17 0.9,0.26 0.36,0.1 0.72,0.21 1.09,0.33 0.36,0.12 0.75,0.25 1.18,0.4l0.47 0.21 0.04 0.46c0.01,0.06 0.04,0.13 0.08,0.2 0.05,0.08 0.09,0.14 0.16,0.19l0.48 0.03 0.15 0.57 0.09 0.5c0.05,0.25 0.09,0.42 0.13,0.51 0.05,0.09 0.13,0.18 0.23,0.28l0.31 0.5c0.09,0.5 0.21,0.93 0.37,1.3 0.15,0.36 0.32,0.73 0.5,1.1 0.21,0.36 0.39,0.73 0.55,1.12 0.15,0.38 0.25,0.81 0.28,1.29 0.15,-0.11 0.29,-0.27 0.43,-0.46 0.05,-0.07 0.09,-0.14 0.15,-0.21 0.06,-0.07 0.13,-0.14 0.2,-0.2l2.16 -4.46 -0.17 -0.48 0.84 -1.19c0.24,-0.27 0.46,-0.54 0.67,-0.83 0.2,-0.28 0.35,-0.58 0.46,-0.92l0.18 -0.42c0.93,-1.88 2.34,-3.19 4.22,-3.94l0.68 -0.3 0.32 0.63c0.22,0.36 0.55,0.65 1,0.86 0.45,0.22 0.94,0.42 1.46,0.61l0.51 0.2c0.22,0.3 0.35,0.53 0.38,0.69 0.03,0.17 0.04,0.31 0.04,0.43l0.3 0.5c-0.15,0.85 -0.38,1.48 -0.67,1.89 -0.29,0.41 -0.61,0.81 -0.94,1.18 -0.25,0.31 -0.48,0.6 -0.68,0.9 -0.2,0.3 -0.34,0.61 -0.43,0.93l-0.25 0.48c-0.62,0.48 -0.97,1.09 -1.03,1.81l-0.06 0.61 -0.62 0.12c-0.03,0 -0.08,0.08 -0.17,0.22 -0.09,0.15 -0.2,0.47 -0.33,0.98 -0.18,0.38 -0.32,0.62 -0.39,0.73 -0.09,0.12 -0.15,0.21 -0.2,0.27 -0.02,0.15 -0.05,0.28 -0.07,0.4 -0.02,0.12 -0.04,0.27 -0.07,0.45l-0.18 0.37c-0.21,0.27 -0.35,0.51 -0.42,0.74 -0.07,0.23 -0.15,0.49 -0.24,0.79 -0.06,0.27 -0.14,0.55 -0.23,0.83 -0.09,0.29 -0.23,0.58 -0.44,0.88l0.17 0.43 -0.28 0.35c-0.18,0.24 -0.32,0.52 -0.44,0.84 -0.11,0.32 -0.22,0.64 -0.33,0.98 -0.1,0.36 -0.22,0.72 -0.35,1.08 -0.13,0.37 -0.33,0.72 -0.58,1.05 -0.1,0.53 -0.19,0.95 -0.3,1.25 -0.09,0.31 -0.29,0.69 -0.57,1.14 -0.09,1.38 -0.61,2.95 -1.57,4.69 0.03,0.3 -0.01,0.62 -0.1,0.93 -0.1,0.32 -0.21,0.62 -0.33,0.9 -0.04,0.12 -0.07,0.25 -0.12,0.38 -0.05,0.14 -0.08,0.24 -0.1,0.3l-0.03 0.48c-0.11,0.33 -0.24,0.61 -0.38,0.83 -0.15,0.24 -0.28,0.44 -0.42,0.64 -0.07,0.07 -0.13,0.15 -0.19,0.25 -0.05,0.1 -0.1,0.17 -0.14,0.24l-0.66 0.38z"/>
    <path class="fil5" d="M421.79 99.31c-0.07,-0.21 -0.16,-0.4 -0.26,-0.57 -0.1,-0.17 -0.21,-0.35 -0.34,-0.56 -0.19,-0.31 -0.39,-0.64 -0.57,-1 -0.18,-0.37 -0.32,-0.81 -0.41,-1.33 0,-0.29 0.03,-0.5 0.09,-0.64 0.06,-0.14 0.12,-0.26 0.19,-0.36l0.03 -0.77 0.62 -0.12c0.22,-0.01 0.45,-0.04 0.68,-0.08 0.24,-0.05 0.47,-0.09 0.69,-0.13 1.05,-0.19 2.11,-0.44 3.19,-0.72 1.09,-0.29 2.2,-0.6 3.34,-0.92 1.23,-0.4 2.58,-0.77 4.02,-1.13 0.08,-0.33 0.13,-0.54 0.16,-0.63 0.03,-0.09 0.06,-0.2 0.09,-0.31l0.41 -0.34c0.63,-0.14 1.08,-0.15 1.36,-0.01 0.28,0.13 0.51,0.27 0.67,0.4 0.71,-0.19 1.42,-0.39 2.15,-0.63 0.72,-0.24 1.48,-0.48 2.26,-0.74 1.07,-0.34 2.16,-0.69 3.27,-1.04 1.1,-0.34 2.19,-0.62 3.26,-0.82 0.47,-0.08 0.91,-0.15 1.33,-0.2 0.41,-0.05 0.82,-0.08 1.22,-0.1l0.56 0.28c0.15,0.18 0.32,0.33 0.52,0.46 0.19,0.14 0.41,0.26 0.67,0.39 0.47,0.26 0.95,0.59 1.45,1.01 0.49,0.42 0.77,1.12 0.84,2.11l-0.13 0.45c-0.09,0.13 -0.21,0.27 -0.36,0.41l-0.3 0.61 -0.46 0.09c-0.28,0.05 -0.48,0.11 -0.61,0.17 -0.13,0.07 -0.29,0.16 -0.46,0.28 -0.1,0.08 -0.22,0.14 -0.35,0.21 -0.12,0.07 -0.27,0.15 -0.42,0.24 -0.31,0.02 -0.54,0.05 -0.71,0.08 -0.17,0.03 -0.36,0.07 -0.58,0.11 -0.83,0.15 -1.71,0.38 -2.66,0.66 -0.93,0.29 -1.85,0.59 -2.73,0.9 -0.65,0.2 -1.27,0.4 -1.86,0.58 -0.6,0.18 -1.14,0.34 -1.62,0.49 -0.14,0.77 -0.27,1.45 -0.39,2.04 -0.12,0.59 -0.25,1.19 -0.39,1.78 -0.15,0.6 -0.28,1.2 -0.4,1.81 -0.11,0.6 -0.2,1.27 -0.27,1.99 -0.24,0.56 -0.42,1.08 -0.56,1.58 -0.13,0.49 -0.21,1.04 -0.25,1.64 -0.32,0.55 -0.53,1.11 -0.6,1.7 -0.07,0.58 -0.15,1.08 -0.21,1.49l-0.06 0.65c-0.15,0.23 -0.24,0.4 -0.26,0.52 -0.02,0.11 -0.07,0.26 -0.16,0.42 -0.02,0.37 -0.06,0.73 -0.14,1.09 -0.03,0.15 -0.05,0.3 -0.08,0.46 -0.03,0.16 -0.02,0.29 0.02,0.36 0,0.31 -0.04,0.56 -0.11,0.75 0.03,0.16 0.04,0.33 0.05,0.5 0,0.17 0,0.34 0,0.52 -0.02,0.2 -0.02,0.37 -0.02,0.53 0,0.16 0.04,0.3 0.12,0.42 0.1,0.1 0.21,0.2 0.31,0.29 0.1,0.1 0.19,0.22 0.28,0.38 0.07,0.04 0.15,0.07 0.23,0.08 0.09,0.01 0.17,0.04 0.23,0.09 0.26,0.15 0.48,0.22 0.68,0.22l0.51 0.41c0.34,0.97 0.34,1.76 -0.02,2.4 -0.39,0.72 -1.15,1.19 -2.31,1.41l-0.59 0.06c-0.22,-0.15 -0.36,-0.26 -0.4,-0.31 -0.26,-0.06 -0.48,-0.11 -0.67,-0.15 -0.17,-0.03 -0.35,-0.14 -0.52,-0.3 -0.07,-0.05 -0.14,-0.07 -0.22,-0.07 -0.09,0 -0.17,-0.02 -0.23,-0.07 -0.29,-0.02 -0.53,-0.08 -0.72,-0.16l-0.5 -0.17c-0.02,-0.28 -0.04,-0.47 -0.06,-0.58 -0.28,-0.27 -0.52,-0.56 -0.7,-0.89 -0.19,-0.34 -0.37,-0.69 -0.52,-1.07 -0.14,-0.28 -0.27,-0.54 -0.38,-0.78 -0.11,-0.23 -0.26,-0.43 -0.44,-0.6 -0.4,-1.92 -0.53,-3.57 -0.36,-4.95 0.17,-1.39 0.39,-2.74 0.65,-4.08 0.16,-0.71 0.29,-1.43 0.41,-2.16 0.12,-0.74 0.21,-1.48 0.27,-2.23l0.38 -0.54c0.15,-0.21 0.26,-0.33 0.31,-0.36 -0.07,-0.36 -0.06,-0.72 0.01,-1.09 0.07,-0.37 0.16,-0.76 0.26,-1.14 0.07,-0.24 0.13,-0.48 0.19,-0.72 0.05,-0.24 0.07,-0.44 0.07,-0.61 -0.19,0.04 -0.36,0.07 -0.51,0.12 -0.14,0.04 -0.3,0.09 -0.46,0.15 -0.34,0.14 -0.68,0.25 -1.01,0.31 -0.25,0.05 -0.43,0.07 -0.55,0.06 -0.19,0.15 -0.39,0.25 -0.58,0.3 -0.19,0.05 -0.38,0.09 -0.57,0.13l-0.5 0.09 -0.49 0.1c-0.33,0.06 -0.59,0.15 -0.77,0.26 -0.38,0.07 -0.63,0.12 -0.74,0.14 -0.11,0.02 -0.23,0.04 -0.37,0.07l-0.5 0.09 -0.5 0.09c-0.21,0.04 -0.46,0.07 -0.75,0.08 -0.28,0.01 -0.59,-0.04 -0.92,-0.14l-0.35 -0.28c-0.23,-0.27 -0.41,-0.42 -0.55,-0.42l-0.48 -0.03 -0.08 -0.46z"/>
    <path class="fil5" d="M387.86 130.31c-0.28,0.05 -0.71,0.09 -1.3,0.11 -0.53,-0.38 -1.04,-0.95 -1.54,-1.7 -0.49,-0.74 -0.91,-1.56 -1.27,-2.45 -0.35,-0.89 -0.6,-1.8 -0.76,-2.73 -0.16,-0.92 -0.15,-1.77 0.02,-2.54 0,-0.03 0.06,-0.38 0.21,-1.06 0.14,-0.69 0.33,-1.55 0.56,-2.61 0.23,-1.05 0.5,-2.23 0.8,-3.52 0.3,-1.3 0.6,-2.57 0.91,-3.83 0.31,-1.25 0.61,-2.39 0.92,-3.43 0.31,-1.04 0.59,-1.86 0.85,-2.44 0.17,-0.44 0.34,-0.85 0.47,-1.25 0.14,-0.39 0.29,-0.76 0.42,-1.1 0.21,-0.56 0.41,-1.07 0.59,-1.54 0.18,-0.48 0.4,-0.92 0.65,-1.32 0.25,-0.4 0.55,-0.77 0.89,-1.1 0.33,-0.34 0.76,-0.65 1.27,-0.94 0.36,0.07 0.68,0.16 0.95,0.26 0.28,0.11 0.53,0.26 0.77,0.44l0.23 0.55c0.09,0.19 0.2,0.3 0.34,0.35 0.14,0.05 0.24,0.06 0.33,0.05 0.37,0.01 0.7,0.04 0.98,0.09 0.27,0.05 0.57,0.06 0.88,0.03 0.14,0.15 0.27,0.29 0.4,0.44 0.13,0.14 0.26,0.28 0.39,0.39 0.7,0.7 1.3,1.39 1.79,2.06 0.5,0.68 0.65,1.49 0.46,2.44l0.12 0.44c0.18,0.18 0.28,0.34 0.31,0.51 0.03,0.16 0.05,0.4 0.05,0.71 0.01,0.23 0.04,0.48 0.07,0.74 0.04,0.26 0.12,0.54 0.26,0.83l0.35 0.27c0.48,0.14 0.93,0.17 1.34,0.09 0.55,-0.1 1.03,-0.31 1.42,-0.64 0.4,-0.33 0.76,-0.66 1.1,-0.98 0.26,-0.27 0.51,-0.5 0.75,-0.69 0.23,-0.19 0.47,-0.33 0.71,-0.44 0.48,-0.65 0.92,-1.24 1.32,-1.76 0.4,-0.51 0.82,-1.04 1.26,-1.57 0.85,-0.99 1.65,-2.03 2.41,-3.13 0.77,-1.09 1.29,-2.38 1.6,-3.86 0.26,-0.24 0.58,-0.41 0.97,-0.48 0.39,-0.07 0.78,-0.06 1.2,0.01 0.41,0.09 0.83,0.18 1.25,0.31 0.09,0.03 0.18,0.06 0.25,0.08 0.07,0.01 0.16,0.04 0.25,0.08 0.06,0.3 0.23,0.56 0.52,0.76 0.17,0.08 0.28,0.13 0.33,0.15 0.06,0.02 0.12,0.03 0.19,0.05 0.24,0.09 0.45,0.19 0.62,0.27 0.17,0.08 0.32,0.21 0.44,0.39 0.38,0.7 0.9,1.2 1.55,1.5 0.01,0.31 0.08,0.61 0.21,0.88 0.14,0.27 0.29,0.54 0.45,0.79 0.07,0.11 0.14,0.2 0.18,0.29 0.05,0.09 0.11,0.2 0.19,0.33l-0.92 0.08 0.29 0.89c0.17,0.46 0.23,0.98 0.19,1.59 -0.05,0.61 -0.13,1.09 -0.27,1.46 0.21,0.81 0.36,1.46 0.45,1.95 0.09,0.48 0.15,0.93 0.17,1.35 0.02,0.43 0.01,0.83 -0.05,1.23 -0.05,0.4 -0.14,0.81 -0.26,1.26 0.5,2.08 0.61,4.03 0.35,5.88 -0.27,1.84 -0.61,3.59 -1.02,5.23 -0.04,0.21 -0.1,0.4 -0.14,0.58 -0.06,0.18 -0.1,0.36 -0.12,0.53 -0.29,0.14 -0.55,0.29 -0.77,0.45 -0.23,0.15 -0.44,0.32 -0.63,0.5 -0.27,0.25 -0.54,0.46 -0.82,0.64 -0.28,0.18 -0.59,0.31 -0.92,0.37 -1.5,-0.72 -2.49,-2.26 -2.97,-4.62 -0.48,-2.36 -0.54,-5.47 -0.17,-9.32 0.16,-0.18 0.21,-0.4 0.13,-0.67l-0.09 -0.46 -0.42 0.04c-0.13,0.02 -0.26,0.06 -0.36,0.11 -0.11,0.05 -0.17,0.19 -0.18,0.42 -0.77,0.8 -1.6,1.63 -2.51,2.49 -0.9,0.87 -1.86,1.69 -2.85,2.46 -1,0.77 -2.03,1.44 -3.1,2.02 -1.08,0.59 -2.16,0.98 -3.23,1.18 -2.75,0.51 -5.09,-0.5 -7.02,-3.05l-0.51 -0.68 -0.28 0.74c-0.06,0.15 -0.15,0.45 -0.29,0.89 -0.13,0.44 -0.25,0.93 -0.36,1.5 -0.11,0.56 -0.19,1.13 -0.24,1.71 -0.05,0.57 -0.01,1.06 0.13,1.47 -0.28,0.36 -0.54,0.77 -0.78,1.21 -0.25,0.44 -0.39,0.93 -0.44,1.45 -0.03,0.15 -0.02,0.28 0.03,0.4 0.05,0.12 0.12,0.24 0.2,0.37 0.01,0.2 -0.03,0.34 -0.09,0.44 -0.07,0.1 -0.15,0.2 -0.24,0.3 -0.11,0.17 -0.23,0.34 -0.34,0.52 -0.11,0.17 -0.2,0.37 -0.27,0.58 -0.03,0.17 -0.03,0.36 -0.03,0.54 0.01,0.19 0.01,0.35 0.01,0.49 0.05,0.3 0.05,0.52 -0.02,0.64 -0.16,0.63 -0.31,1.15 -0.45,1.56 -0.13,0.41 -0.29,0.73 -0.44,0.96 -0.16,0.23 -0.34,0.4 -0.53,0.5 -0.19,0.11 -0.43,0.19 -0.7,0.24z"/>
   </g>
   <path class="fil0 str0" d="M58.04 74.59l-0.05 0.05 7.3 0.64c2.33,0.21 5.16,0.46 8.43,0.75 4.28,0.32 8.31,0.69 12.06,1.1 10.65,1.15 18.03,2.7 24.59,4.08 5.98,1.25 11.66,2.44 18.34,3.06 19.46,1.78 34.57,1.71 47.77,1.65 6.04,-0.02 12.01,-0.05 18.01,0.11 2.53,0.04 4.84,0.09 7.09,0.15 14.42,0.19 30.79,2.5 47.59,4.86 6.98,0.99 14.09,1.99 20.67,2.77 5.79,0.69 10.03,0.91 14.4,1.13 1.73,0.09 3.51,0.18 5.37,0.3 3.86,0.29 6.23,0.49 6.26,0.5l-0.13 -0.05c-0.02,0 -2.4,-0.21 -6.28,-0.49 -1.87,-0.13 -3.65,-0.22 -5.39,-0.31 -4.34,-0.22 -8.56,-0.43 -14.28,-1.11 -6.54,-0.79 -13.64,-1.79 -20.6,-2.77 -16.87,-2.38 -33.29,-4.69 -47.83,-4.89 -2.24,-0.05 -4.56,-0.1 -7.09,-0.15 -6.02,-0.16 -12,-0.13 -18.05,-0.11 -13.16,0.06 -28.21,0.12 -47.5,-1.64 -6.47,-0.6 -12.08,-1.78 -17.99,-3.02 -6.61,-1.38 -14.04,-2.94 -24.84,-4.11 -3.79,-0.42 -7.89,-0.79 -12.18,-1.11 -3.23,-0.29 -6.06,-0.54 -8.38,-0.75l-7.29 -0.64z"/>
   <path class="fil0 str0" d="M60.25 72.04l-0.04 0.05 25.27 2.34c1.54,0.15 3.25,0.29 5.05,0.44 4.45,0.37 8.98,0.75 10.53,1.11 35.39,6.39 66.65,7.42 92.09,8.25l1.6 0.06c2.5,0.13 4.79,0.26 6.98,0.4 15.69,0.87 33.68,3.37 51.8,6 9.2,1.31 14.82,1.5 20.52,1.69 3.81,0.13 7.63,0.26 12.6,0.76 1.87,0.16 2.91,0.26 2.92,0.26l-0.11 -0.04c-0.01,0 -1.05,-0.1 -2.92,-0.27 -5.01,-0.5 -8.85,-0.63 -12.67,-0.75 -5.66,-0.19 -11.24,-0.38 -20.32,-1.68 -18.16,-2.64 -36.2,-5.15 -51.97,-6.02 -2.19,-0.14 -4.49,-0.27 -7.02,-0.41l-1.61 -0.05c-25.35,-0.84 -56.46,-1.87 -91.55,-8.2 -1.66,-0.39 -6.32,-0.78 -10.91,-1.16 -1.78,-0.15 -3.48,-0.29 -5,-0.43l-25.24 -2.35z"/>
   <path class="fil0 str0" d="M62.24 69.74l-0.03 0.04 24.03 2.33c3.59,0.34 7.5,0.72 11.66,1.13 39.46,4.72 69.34,7.57 96.47,9.34 2.7,0.24 5.48,0.5 8.22,0.75 14.37,1.38 28.51,2.89 43.29,4.62 5.92,0.67 10.58,0.98 15.37,1.29 2.03,0.13 4.11,0.27 6.25,0.43 2.81,0.28 5.03,0.49 7.63,0.72l8.55 0.83 -0.11 -0.04 -8.55 -0.83c-2.6,-0.23 -4.81,-0.44 -7.64,-0.72 -2.16,-0.16 -4.24,-0.3 -6.28,-0.43 -4.77,-0.32 -9.41,-0.62 -15.27,-1.29 -14.78,-1.73 -28.93,-3.24 -43.32,-4.62 -2.74,-0.26 -5.52,-0.51 -8.26,-0.76 -27.09,-1.77 -56.89,-4.61 -96.29,-9.33 -4.21,-0.41 -8.12,-0.79 -11.71,-1.13l-24.01 -2.33z"/>
   <path class="fil0 str0" d="M64.06 67.65l-0.03 0.03 50.41 5.06c1.97,0.2 3.97,0.4 5.99,0.6 19.09,2.04 36.25,3.71 53.29,5.38 2.73,0.26 5.46,0.53 8.18,0.8 2.45,0.24 4.89,0.49 7.31,0.73 4.77,0.48 9.46,0.95 14.07,1.41 2.28,0.23 4.54,0.45 6.78,0.68 14.35,1.48 27.24,2.77 39.45,3.95l28.63 2.87 -0.1 -0.03 -28.62 -2.88c-12.21,-1.18 -25.08,-2.47 -39.42,-3.95 -2.25,-0.22 -4.51,-0.45 -6.78,-0.68 -4.62,-0.46 -9.3,-0.93 -14.07,-1.41 -2.42,-0.24 -4.85,-0.49 -7.31,-0.73 -2.72,-0.27 -5.45,-0.54 -8.18,-0.8 -17.02,-1.67 -34.16,-3.34 -53.23,-5.37 -2.03,-0.21 -4.04,-0.41 -6,-0.61l-50.37 -5.05z"/>
   <path class="fil1 str1" d="M294.78 9.51c1.6,-4.57 5.88,-7.78 11.1,-7.78l16.74 0c4.97,0 9.17,2.64 11.76,6.83l8.34 13.49 0 -8.49c0,-6.63 5.16,-11.83 11.83,-11.83l14.38 0c1.88,0 3.68,0.45 5.3,1.25 1.74,-0.99 3.8,-1.55 6.06,-1.55l26.83 0c16.79,0 32.24,9.61 41,23.72 4.58,7.38 6.86,15.59 6.86,24.27 0,25.98 -21.89,47.89 -47.86,47.89l-26.83 0c-1.94,0 -3.74,-0.41 -5.31,-1.16 -1.76,0.94 -3.82,1.46 -6.05,1.46l-15.14 0c-5,0 -9.26,-2.59 -11.84,-6.84l-9.6 -15.78 0 10.84c0,6.89 -5.23,11.78 -12.04,11.78l-14.43 0c-2.27,0 -4.34,-0.56 -6.09,-1.56 -1.86,1.21 -4.13,1.89 -6.63,1.89l-10.58 0c-3.14,0 -5.63,-0.98 -7.54,-2.7 -4.49,2.23 -9.5,3.38 -14.86,3.38 -16.16,0 -29.74,-8.96 -36.65,-22.14l0 8.87c0,6.77 -5.01,11.79 -11.78,11.79 -6.34,0 -13.46,-0.36 -19.49,-2.36 -6.49,-2.16 -10.4,-6 -11.77,-10.57 -7.53,9.15 -18.88,14.97 -31.9,14.97 -5.25,0 -10.15,-1.1 -14.57,-3.24 -2.14,1.64 -4.83,2.56 -7.83,2.56l-10.58 0c-3.26,0 -6.11,-1.16 -8.18,-3.11 -2.15,2.41 -5.35,3.87 -9.04,3.87l-10.8 0c-6.8,0 -11.87,-2.81 -14.51,-7.99 -1.87,4.97 -5.6,7.99 -11.27,7.99l-13.13 0c-4.91,0 -8.62,-2.9 -10.75,-7 -1.79,4.24 -5.73,7 -10.79,7l-11.67 0c-4.48,0 -8.51,-1.56 -11.32,-5.19 -3.31,-4.27 -3.6,-9.84 -3.05,-15l7.11 -66.61c0.67,-6.33 5.29,-10.88 11.76,-10.88l18.53 0c5.93,0 9.5,3.49 11.31,8.83 0.04,0.1 0.07,0.19 0.1,0.3l5.34 17.58 5.34 -17.58c0.03,-0.11 0.06,-0.2 0.09,-0.3 1.82,-5.34 5.39,-8.83 11.31,-8.83l18.53 0c6.48,0 11.09,4.55 11.77,10.88l1.57 14.73c0.02,-0.81 0.12,-1.61 0.29,-2.39 0.6,-5.84 4.73,-10.89 9.29,-14.33 5.92,-4.47 13.3,-7 20.62,-7.85 8.18,-0.96 18.45,-0.6 24.47,5.9 0.54,0.6 1.03,1.21 1.46,1.85 0.08,-0.66 0.22,-1.32 0.42,-1.97 1.46,-4.62 5.69,-7.52 10.48,-7.52l17.82 0c5.33,0 9.15,2.87 11.53,7.49 0.06,0.11 0.1,0.21 0.16,0.32l3.57 7.62 3.53 -7.59c0.05,-0.12 0.1,-0.22 0.17,-0.35 2.38,-4.62 6.22,-7.49 11.55,-7.49l18.02 0c5.71,0 10.56,3.83 11.22,9.44 0.5,-0.82 1.09,-1.61 1.78,-2.35 6.01,-6.51 16.28,-6.87 24.46,-5.91 7.1,0.83 14.25,3.23 20.08,7.45z"/>
   <path class="fil6 str2" d="M203.78 74.62c-3.76,-2.97 -7.08,-5.66 -10.75,-1.59 -13.04,14.45 12.72,14.6 18.72,14.6 1.51,0 2.27,-0.76 2.27,-2.28l0 -29.3 24.69 -43.32c0.21,-0.44 0.32,-0.82 0.32,-1.09 0,-0.82 -0.7,-1.25 -1.79,-1.25l-18.02 0c-1.47,0 -2.24,0.66 -3.1,2.34l-12.1 26.04 -12.23 -26.04c-0.87,-1.68 -1.61,-2.34 -3.08,-2.34l-17.82 0c-1.37,0 -2.15,1.11 -0.72,3.64l23.79 42.14 9.82 18.45z"/>
   <path class="fil6 str2" d="M113.36 86.76c0,1.5 0.73,2.23 2.25,2.23l10.58 0c4.39,0 3.42,-5.55 4.2,-7.72 4.58,5.39 10.68,8.4 18.2,8.4 18.13,0 32.03,-14.57 32.03,-32.73 0,-6.36 -1.46,-12.03 -4.42,-16.97 -5.85,-9.74 -16.13,-15.67 -27.61,-15.67 -6.64,0 -12.62,2.72 -17.26,7.52 -0.24,-3.2 -1.69,-4.49 -5.8,-6.47 2.08,-1.48 4.39,-2.97 7.06,-3.81 7.12,-2.25 13.04,4.32 18.21,0.45 4.42,-3.31 2.78,-12.08 -15.63,-9.93 -13.75,1.61 -21.72,9.61 -21.59,14.32 -0.14,0.33 -0.22,0.72 -0.22,1.2l0 59.18zm6.08 -16.84c0.39,-0.57 1.17,-0.72 1.74,-0.33 0.57,0.39 0.72,1.17 0.33,1.74 -0.39,0.58 -1.17,0.72 -1.74,0.33 -0.58,-0.39 -0.72,-1.17 -0.33,-1.74zm6.98 1.13c0.39,-0.57 1.17,-0.72 1.74,-0.32 0.57,0.39 0.72,1.17 0.33,1.74 -0.39,0.57 -1.17,0.72 -1.74,0.32 -0.58,-0.39 -0.72,-1.17 -0.33,-1.74zm-4.86 5.18c0.39,-0.57 1.17,-0.71 1.75,-0.32 0.57,0.39 0.71,1.17 0.32,1.74 -0.39,0.57 -1.17,0.72 -1.74,0.33 -0.57,-0.39 -0.72,-1.18 -0.33,-1.75zm46.66 -18.16c0,12.01 -7.46,21.75 -16.67,21.75 -9.21,0 -16.67,-9.74 -16.67,-21.75 0,-12.01 7.46,-21.75 16.67,-21.75 9.21,0 16.67,9.74 16.67,21.75z"/>
   <path class="fil6 str2" d="M44.92 83.18c0.55,1.91 1.23,6.58 3.76,6.58l13.13 0c1.54,0 1.98,-0.45 2.58,-2.44l12.35 -41.42 3.9 37.61c0.62,6 4.26,6.25 6.95,6.25l10.8 0c1.61,0 2.5,-0.78 2.33,-2.33l-7.88 -73.96c-0.16,-1.61 -0.83,-2.38 -2.32,-2.38l-18.53 0c-1.37,0 -1.69,0.56 -2.31,2.38l-14.43 47.54 -14.44 -47.54c-0.62,-1.82 -0.93,-2.38 -2.31,-2.38l-18.53 0c-1.48,0 -2.14,0.77 -2.31,2.38l-7.1 66.6c-0.95,8.89 2.26,9.69 4.91,9.69l11.67 0c1.48,0 2.14,-0.73 2.31,-2.33l4.46 -42.59 11.01 38.34z"/>
   <path class="fil6 str2" d="M153.99 40.82c-4.39,0 -8.25,2.97 -10.46,7.45 -1.47,2.96 -0.08,6.56 2.96,7.86l3.84 1.64 -3.32 1.6c-1.36,0.65 -2.34,1.75 -2.86,3.02 8.66,-0.74 15.96,1.84 20.12,3.81 1.3,-2.49 2.09,-5.47 2.16,-8.69 -0.05,-2.34 -0.38,-4.6 -0.95,-6.7 -1.87,-5.87 -6.31,-9.99 -11.49,-9.99z"/>
   <g>
    <path class="fil3 str3" d="M166.89 66.61c-5.36,-2.7 -17.55,-7.26 -31.19,-1.75"/>
   </g>
   <path class="fil6 str2" d="M295.4 86.2c0,1.5 -0.73,2.23 -2.24,2.23l-10.58 0c-1.3,0 -1.61,-0.41 -2.23,-2.23l-1.98 -5.49c-4.57,5.39 -10.68,8.4 -18.19,8.4 -18.13,0 -32.04,-14.57 -32.04,-32.73 0,-6.35 1.46,-12.02 4.42,-16.96 5.86,-9.75 16.14,-15.67 27.62,-15.67 6.63,0 12.62,2.71 17.26,7.52 1.36,-3.54 1.72,-4.45 5.79,-6.48 -2.07,-1.48 -4.38,-2.97 -7.05,-3.81 -7.13,-2.25 -13.04,4.32 -18.22,0.45 -4.42,-3.31 -2.77,-12.08 15.64,-9.93 13.74,1.61 21.71,9.61 21.58,14.33 0.15,0.32 0.22,0.72 0.22,1.19l0 59.18zm-6.07 -16.84c-0.39,-0.57 -1.18,-0.72 -1.75,-0.33 -0.57,0.4 -0.71,1.18 -0.32,1.75 0.39,0.57 1.17,0.72 1.74,0.32 0.57,-0.39 0.72,-1.17 0.33,-1.74zm-6.98 1.13c-0.4,-0.57 -1.18,-0.71 -1.75,-0.32 -0.57,0.39 -0.71,1.17 -0.32,1.74 0.39,0.57 1.17,0.72 1.74,0.33 0.57,-0.4 0.72,-1.18 0.33,-1.75zm4.85 5.19c-0.39,-0.57 -1.17,-0.72 -1.74,-0.33 -0.57,0.39 -0.72,1.17 -0.33,1.74 0.4,0.58 1.18,0.72 1.75,0.33 0.57,-0.39 0.72,-1.17 0.32,-1.74zm-46.66 -18.17c0,12.01 7.47,21.75 16.68,21.75 9.2,0 16.67,-9.74 16.67,-21.75 0,-12.01 -7.47,-21.74 -16.67,-21.74 -9.21,0 -16.68,9.73 -16.68,21.74z"/>
   <path class="fil6 str2" d="M254.78 40.26c4.39,0 8.24,2.97 10.46,7.45 1.46,2.97 0.08,6.56 -2.96,7.86l-3.84 1.64 3.32 1.6c1.36,0.65 2.33,1.75 2.85,3.03 -8.66,-0.75 -15.96,1.83 -20.11,3.8 -1.3,-2.48 -2.09,-5.47 -2.16,-8.68 0.04,-2.35 0.37,-4.6 0.94,-6.71 1.88,-5.86 6.32,-9.99 11.5,-9.99z"/>
   <g>
    <path class="fil3 str3" d="M241.88 66.05c5.35,-2.7 17.55,-7.26 31.18,-1.75"/>
   </g>
   <path class="fil6 str2" d="M378.03 85.55c0,1.5 0.76,2.25 2.26,2.25l26.83 0c20.68,0 38.35,-17.6 38.35,-38.38 0,-6.9 -1.83,-13.33 -5.43,-19.26 -7.07,-11.26 -19.42,-19.23 -32.92,-19.23l-26.83 0c-1.5,0 -2.26,0.76 -2.26,2.33l0 72.29zm30.36 -52.91c8.8,0 15.94,7.14 15.94,15.95 0,8.8 -7.14,15.94 -15.94,15.94 -8.81,0 -15.95,-7.14 -15.95,-15.94 0,-8.81 7.14,-15.95 15.95,-15.95z"/>
   <path class="fil6 str2" d="M350.07 85.83c0.91,1.52 2.16,2.28 3.72,2.28l15.14 0c1.68,0 2.54,-0.76 2.54,-2.28l0 -72.27c0,-1.29 -1.41,-2.32 -2.54,-2.32l-14.38 0c-1.51,0 -2.32,1.03 -2.32,2.32l0 41.94 -25.94 -41.94c-0.96,-1.57 -2.21,-2.32 -3.67,-2.32l-16.74 0c-1.47,0 -2.28,1.03 -2.28,2.32l0 72.27c0,1.52 0.76,2.28 2.28,2.28l14.43 0c1.67,0 2.53,-0.76 2.53,-2.28l0 -44.78 27.23 44.78z"/>
   <path class="fil1" d="M425.71 119.95c-0.15,0.75 -0.32,1.49 -0.5,2.23 -0.06,0.23 -0.11,0.45 -0.17,0.68 -0.01,0.02 -0.01,0.03 -0.01,0.04 -0.32,1.85 -1.41,3.31 -3.1,4.14 -0.04,0.02 -0.09,0.04 -0.07,0.04 -0.51,0.47 -1.05,0.89 -1.59,1.23 -0.87,0.57 -1.89,0.98 -2.96,1.18 -1.23,0.23 -2.36,0.08 -3.5,-0.47 -3.42,-1.63 -5.28,-4.82 -6.05,-8.4 -0.42,0.26 -0.85,0.51 -1.29,0.74 -1.53,0.84 -3.18,1.46 -4.9,1.78 -1.67,0.31 -3.28,0.29 -4.78,-0.01 -0.04,0.06 -0.09,0.13 -0.13,0.2 0.05,1.28 -0.25,2.53 -0.92,3.63 -0.02,0.62 -0.12,1.23 -0.31,1.82 -0.15,0.55 -0.31,1.1 -0.49,1.63 -0.27,0.83 -0.63,1.62 -1.12,2.34 -0.66,0.99 -1.54,1.81 -2.52,2.32 -0.7,0.4 -1.54,0.69 -2.4,0.85 -0.7,0.13 -1.42,0.17 -2.12,0.2 -1.33,0.05 -2.49,-0.3 -3.56,-1.08 -1.19,-0.85 -2.14,-1.95 -2.95,-3.16 -0.73,-1.1 -1.34,-2.29 -1.82,-3.52 -0.5,-1.25 -0.86,-2.54 -1.08,-3.86 -0.26,-1.53 -0.27,-3.09 0.05,-4.61 0.06,-0.37 0.13,-0.74 0.21,-1.12 0.19,-0.89 0.39,-1.78 0.58,-2.66 0.26,-1.2 0.53,-2.39 0.81,-3.59 0.3,-1.3 0.61,-2.61 0.94,-3.91 0.3,-1.23 0.62,-2.46 0.98,-3.67 0.31,-1.05 0.65,-2.11 1.06,-3.04 0.1,-0.26 0.23,-0.59 0.35,-0.93 0.15,-0.42 0.32,-0.84 0.48,-1.26 0.19,-0.51 0.39,-1.01 0.58,-1.52 0.31,-0.82 0.69,-1.6 1.16,-2.34 0.49,-0.77 1.07,-1.48 1.67,-2.08 0.7,-0.72 1.57,-1.35 2.5,-1.87 1.24,-0.71 2.54,-0.92 3.95,-0.63 0.61,0.12 1.22,0.29 1.8,0.51 0.04,0.01 0.07,0.03 0.11,0.04 0.72,0.29 1.4,0.66 2.03,1.13 1.32,0.12 2.5,0.7 3.47,1.69 0.2,0.21 0.4,0.42 0.56,0.6 0.06,0.06 0.12,0.12 0.19,0.18 0.85,0.85 1.66,1.77 2.37,2.74 0.04,0.06 0.08,0.11 0.12,0.16 0.13,-0.16 0.26,-0.32 0.39,-0.48 0.02,-0.03 0.04,-0.05 0.07,-0.08 0.73,-0.86 1.42,-1.76 2.06,-2.68 0.36,-0.51 0.56,-1.13 0.69,-1.74 0.25,-1.22 0.8,-2.21 1.72,-3.06 1.07,-0.98 2.37,-1.62 3.8,-1.89 1.1,-0.2 2.21,-0.19 3.31,0.02 0.62,0.12 1.23,0.27 1.83,0.45 0.05,0.01 0.1,0.03 0.14,0.04 0.16,0.05 0.31,0.09 0.46,0.15 0.51,-0.27 1.07,-0.47 1.67,-0.58l0.62 -0.12c0.24,-0.04 0.46,-0.07 0.68,-0.08 0.23,-0.04 0.46,-0.09 0.68,-0.13 0.94,-0.17 1.87,-0.38 2.79,-0.62 1.05,-0.28 2.09,-0.57 3.13,-0.87 0.59,-0.19 1.18,-0.37 1.78,-0.54 0.17,-0.18 0.36,-0.35 0.57,-0.52l0.41 -0.33c0.7,-0.56 1.41,-0.91 2.29,-1.11 1.24,-0.29 2.49,-0.37 3.68,-0.11 0.01,0 0.02,0 0.02,0 0.75,-0.25 1.5,-0.49 2.25,-0.74 1.11,-0.36 2.22,-0.71 3.34,-1.06 1.29,-0.4 2.6,-0.74 3.93,-0.98 0.57,-0.11 1.14,-0.2 1.72,-0.27 0.51,-0.05 1.02,-0.1 1.54,-0.13 0.83,-0.04 1.57,0.06 2.31,0.34l0.1 -0.1c1.6,-1.65 3.89,-2.17 6.05,-1.38l0.46 0.17c0.05,0.02 0.09,0.04 0.14,0.05 0.12,0.05 0.26,0.11 0.38,0.14 0.04,0.01 0.07,0.02 0.1,0.03 0.31,0.09 0.61,0.18 0.86,0.25 0.39,0.11 0.83,0.24 1.27,0.39 0.42,0.13 0.84,0.28 1.27,0.42 0.17,0.06 0.32,0.12 0.49,0.2l0.47 0.21c0.46,0.21 0.89,0.47 1.26,0.77 1.53,-2.68 3.8,-4.7 6.68,-5.88l0.58 -0.26c2.52,-1.12 5.43,-0.28 6.98,1.92 0.03,0.01 0.06,0.02 0.08,0.03 0.06,0.02 0.1,0.04 0.15,0.06l0.52 0.2c1.03,0.41 1.81,1.01 2.47,1.9 0.59,0.8 1.05,1.63 1.3,2.58 0.53,1.09 0.68,2.23 0.45,3.46 -0.27,1.48 -0.74,2.93 -1.62,4.17 -0.41,0.58 -0.85,1.13 -1.29,1.62 -0.02,0.02 -0.04,0.05 -0.07,0.09 -0.09,0.24 -0.2,0.48 -0.34,0.73l-0.25 0.47c-0.15,0.28 -0.32,0.53 -0.5,0.77 -0.24,1.3 -0.9,2.42 -1.84,3.25 -0.01,0.01 -0.02,0.03 -0.03,0.04 -0.1,0.48 -0.25,0.91 -0.48,1.37l-0.19 0.37c-0.07,0.15 -0.15,0.29 -0.23,0.42 0,0 0,0 0,0.01 -0.09,0.37 -0.2,0.74 -0.3,1.07 -0.01,0 -0.01,0 -0.01,0.01 -0.07,1.09 -0.47,2.15 -1.19,3.08 -0.03,0.11 -0.07,0.22 -0.1,0.33 -0.13,0.45 -0.28,0.89 -0.43,1.32 -0.02,0.04 -0.03,0.07 -0.04,0.1 -0.16,0.43 -0.34,0.84 -0.56,1.24 -0.07,0.31 -0.16,0.6 -0.26,0.88 -0.12,0.39 -0.28,0.77 -0.47,1.15 -0.27,1.55 -0.8,3.05 -1.49,4.47 -0.05,0.33 -0.13,0.65 -0.22,0.97 -0.02,0.04 -0.03,0.08 -0.04,0.11 -0.11,0.34 -0.22,0.67 -0.35,0.99 -0.04,0.4 -0.12,0.76 -0.26,1.15 -0.24,0.73 -0.55,1.42 -0.96,2.06 -0.17,0.28 -0.35,0.55 -0.54,0.82 -0.05,0.09 -0.11,0.17 -0.17,0.25 -0.52,0.84 -1.16,1.46 -2.03,1.96l-0.65 0.38c-0.82,0.46 -1.62,0.7 -2.57,0.74 -4.73,0.23 -8.71,-2.05 -10.63,-6.42 -0.26,-0.6 -0.4,-1.14 -0.45,-1.78l-0.05 -0.46c-0.04,-0.47 -0.03,-0.87 0.04,-1.34 0.05,-0.35 0.1,-0.7 0.15,-1.05 0.05,-0.56 0.13,-1.11 0.22,-1.67 0.01,-0.03 0.01,-0.06 0.02,-0.1 0.15,-0.86 0.43,-1.68 0.82,-2.45 0.04,-0.18 0.08,-0.36 0.13,-0.53 0.24,-0.97 0.55,-1.94 0.86,-2.89 0,-0.02 0.01,-0.04 0.01,-0.06 -0.42,-0.57 -0.83,-1.15 -1.22,-1.74 -0.53,-0.81 -1.03,-1.65 -1.46,-2.52 -0.16,-0.35 -0.28,-0.66 -0.38,-1.02 -0.36,0.12 -0.74,0.19 -1.15,0.22 -0.08,0.01 -0.17,0.02 -0.22,0.03 -0.16,0.03 -0.36,0.06 -0.55,0.1 -0.69,0.13 -1.36,0.3 -2.03,0.51 -0.86,0.26 -1.71,0.54 -2.55,0.83 -0.04,0.01 -0.07,0.03 -0.11,0.04 -0.1,0.03 -0.19,0.06 -0.29,0.09 -0.06,0.24 -0.11,0.48 -0.17,0.72 -0.12,0.51 -0.24,1.02 -0.34,1.54 -0.09,0.48 -0.14,0.97 -0.19,1.45 -0.06,0.63 -0.19,1.15 -0.44,1.72 -0.11,0.26 -0.22,0.54 -0.29,0.81 -0.04,0.14 -0.05,0.32 -0.06,0.46 -0.05,0.89 -0.26,1.65 -0.68,2.41 -0.05,0.38 -0.11,0.76 -0.16,1.14l-0.04 0.45c-0.06,0.73 -0.23,1.36 -0.53,1.98 0,0.03 -0.01,0.05 -0.01,0.08l0.12 0.1c0.84,0.68 1.39,1.47 1.75,2.48 0.85,2.35 0.84,4.85 -0.38,7.07 -1.3,2.4 -3.62,3.78 -6.27,4.28 -0.14,0.02 -0.26,0.04 -0.41,0.06l-0.59 0.06c-1.23,0.14 -2.35,-0.08 -3.4,-0.68 -0.36,-0.1 -0.71,-0.25 -1.05,-0.42 -0.3,-0.07 -0.59,-0.16 -0.87,-0.26l-0.34 -0.12c-1.77,-0.57 -3.06,-1.87 -3.63,-3.55 -0.11,-0.17 -0.22,-0.34 -0.32,-0.52 -0.28,-0.5 -0.53,-1.01 -0.76,-1.53 -0.03,-0.07 -0.06,-0.13 -0.09,-0.2 -0.04,-0.04 -0.07,-0.08 -0.1,-0.12z"/>
   <path class="fil6" d="M463.53 117.06c-2.49,0.12 -4.2,-0.89 -5.13,-3.02l-0.05 -0.46c0.06,-0.35 0.11,-0.75 0.17,-1.19 0.05,-0.49 0.12,-0.98 0.19,-1.47 0.09,-0.48 0.29,-0.94 0.6,-1.36 0.04,-0.27 0.13,-0.68 0.27,-1.23 0.14,-0.55 0.39,-1.39 0.75,-2.51 0.29,-0.88 0.53,-1.58 0.7,-2.09 0.17,-0.53 0.33,-0.92 0.44,-1.2 -0.37,-0.44 -0.84,-0.85 -1.42,-1.23 -0.6,-0.74 -1.12,-1.46 -1.58,-2.17 -0.46,-0.69 -0.82,-1.33 -1.11,-1.91 -0.15,-0.65 -0.38,-1.3 -0.7,-1.96 -0.15,-0.34 -0.3,-0.68 -0.45,-1.02 -0.15,-0.35 -0.25,-0.71 -0.33,-1.09 -0.14,-0.18 -0.29,-0.41 -0.42,-0.7l-0.02 -0.5c0.1,-0.25 0.08,-0.55 -0.06,-0.91 -0.14,-0.36 -0.29,-0.73 -0.47,-1.09 -0.16,-0.34 -0.3,-0.71 -0.44,-1.09 -0.15,-0.39 -0.24,-0.78 -0.28,-1.16 -0.05,-0.4 -0.02,-0.79 0.1,-1.18 0.11,-0.39 0.36,-0.75 0.76,-1.08l0.36 -0.36 0.46 0.17c0.34,0.13 0.66,0.25 0.96,0.33 0.3,0.09 0.6,0.17 0.9,0.26 0.36,0.1 0.72,0.21 1.09,0.33 0.36,0.12 0.75,0.25 1.18,0.4l0.47 0.21 0.04 0.46c0.01,0.06 0.04,0.13 0.08,0.2 0.05,0.08 0.09,0.14 0.16,0.19l0.48 0.03 0.15 0.57 0.09 0.5c0.05,0.25 0.09,0.42 0.13,0.51 0.05,0.09 0.13,0.18 0.23,0.28l0.31 0.5c0.09,0.5 0.21,0.93 0.37,1.3 0.15,0.36 0.32,0.73 0.5,1.1 0.21,0.36 0.39,0.73 0.55,1.12 0.15,0.38 0.25,0.81 0.28,1.29 0.15,-0.11 0.29,-0.27 0.43,-0.46 0.05,-0.07 0.09,-0.14 0.15,-0.21 0.06,-0.07 0.13,-0.14 0.2,-0.2l2.16 -4.46 -0.17 -0.48 0.84 -1.19c0.24,-0.27 0.46,-0.54 0.67,-0.83 0.2,-0.28 0.35,-0.58 0.46,-0.92l0.18 -0.42c0.93,-1.88 2.34,-3.19 4.22,-3.94l0.68 -0.3 0.32 0.63c0.22,0.36 0.55,0.65 1,0.86 0.45,0.22 0.94,0.42 1.46,0.61l0.51 0.2c0.22,0.3 0.35,0.53 0.38,0.69 0.03,0.17 0.04,0.31 0.04,0.43l0.3 0.5c-0.15,0.85 -0.38,1.48 -0.67,1.89 -0.29,0.41 -0.61,0.81 -0.94,1.18 -0.25,0.31 -0.48,0.6 -0.68,0.9 -0.2,0.3 -0.34,0.61 -0.43,0.93l-0.25 0.48c-0.62,0.48 -0.97,1.09 -1.03,1.81l-0.06 0.61 -0.62 0.12c-0.03,0 -0.08,0.08 -0.17,0.22 -0.09,0.15 -0.2,0.47 -0.33,0.98 -0.18,0.38 -0.32,0.62 -0.39,0.73 -0.09,0.12 -0.15,0.21 -0.2,0.27 -0.02,0.15 -0.05,0.28 -0.07,0.4 -0.02,0.12 -0.04,0.27 -0.07,0.45l-0.18 0.37c-0.21,0.27 -0.35,0.51 -0.42,0.74 -0.07,0.23 -0.15,0.49 -0.24,0.79 -0.06,0.27 -0.14,0.55 -0.23,0.83 -0.09,0.29 -0.23,0.58 -0.44,0.88l0.17 0.43 -0.28 0.35c-0.18,0.24 -0.32,0.52 -0.44,0.84 -0.11,0.32 -0.22,0.64 -0.33,0.98 -0.1,0.36 -0.22,0.72 -0.35,1.08 -0.13,0.37 -0.33,0.72 -0.58,1.05 -0.1,0.53 -0.19,0.95 -0.3,1.25 -0.09,0.31 -0.29,0.69 -0.57,1.14 -0.09,1.38 -0.61,2.95 -1.57,4.69 0.03,0.3 -0.01,0.62 -0.1,0.93 -0.1,0.32 -0.21,0.62 -0.33,0.9 -0.04,0.12 -0.07,0.25 -0.12,0.38 -0.05,0.14 -0.08,0.24 -0.1,0.3l-0.03 0.48c-0.11,0.33 -0.24,0.61 -0.38,0.83 -0.15,0.24 -0.28,0.44 -0.42,0.64 -0.07,0.07 -0.13,0.15 -0.19,0.25 -0.05,0.1 -0.1,0.17 -0.14,0.24l-0.66 0.38z"/>
   <path class="fil6" d="M421.79 99.31c-0.07,-0.21 -0.16,-0.4 -0.26,-0.57 -0.1,-0.17 -0.21,-0.35 -0.34,-0.56 -0.19,-0.31 -0.39,-0.64 -0.57,-1 -0.18,-0.37 -0.32,-0.81 -0.41,-1.33 0,-0.29 0.03,-0.5 0.09,-0.64 0.06,-0.14 0.12,-0.26 0.19,-0.36l0.03 -0.77 0.62 -0.12c0.22,-0.01 0.45,-0.04 0.68,-0.08 0.24,-0.05 0.47,-0.09 0.69,-0.13 1.05,-0.19 2.11,-0.44 3.19,-0.72 1.09,-0.29 2.2,-0.6 3.34,-0.92 1.23,-0.4 2.58,-0.77 4.02,-1.13 0.08,-0.33 0.13,-0.54 0.16,-0.63 0.03,-0.09 0.06,-0.2 0.09,-0.31l0.41 -0.34c0.63,-0.14 1.08,-0.15 1.36,-0.01 0.28,0.13 0.51,0.27 0.67,0.4 0.71,-0.19 1.42,-0.39 2.15,-0.63 0.72,-0.24 1.48,-0.48 2.26,-0.74 1.07,-0.34 2.16,-0.69 3.27,-1.04 1.1,-0.34 2.19,-0.62 3.26,-0.82 0.47,-0.08 0.91,-0.15 1.33,-0.2 0.41,-0.05 0.82,-0.08 1.22,-0.1l0.56 0.28c0.15,0.18 0.32,0.33 0.52,0.46 0.19,0.14 0.41,0.26 0.67,0.39 0.47,0.26 0.95,0.59 1.45,1.01 0.49,0.42 0.77,1.12 0.84,2.11l-0.13 0.45c-0.09,0.13 -0.21,0.27 -0.36,0.41l-0.3 0.61 -0.46 0.09c-0.28,0.05 -0.48,0.11 -0.61,0.17 -0.13,0.07 -0.29,0.16 -0.46,0.28 -0.1,0.08 -0.22,0.14 -0.35,0.21 -0.12,0.07 -0.27,0.15 -0.42,0.24 -0.31,0.02 -0.54,0.05 -0.71,0.08 -0.17,0.03 -0.36,0.07 -0.58,0.11 -0.83,0.15 -1.71,0.38 -2.66,0.66 -0.93,0.29 -1.85,0.59 -2.73,0.9 -0.65,0.2 -1.27,0.4 -1.86,0.58 -0.6,0.18 -1.14,0.34 -1.62,0.49 -0.14,0.77 -0.27,1.45 -0.39,2.04 -0.12,0.59 -0.25,1.19 -0.39,1.78 -0.15,0.6 -0.28,1.2 -0.4,1.81 -0.11,0.6 -0.2,1.27 -0.27,1.99 -0.24,0.56 -0.42,1.08 -0.56,1.58 -0.13,0.49 -0.21,1.04 -0.25,1.64 -0.32,0.55 -0.53,1.11 -0.6,1.7 -0.07,0.58 -0.15,1.08 -0.21,1.49l-0.06 0.65c-0.15,0.23 -0.24,0.4 -0.26,0.52 -0.02,0.11 -0.07,0.26 -0.16,0.42 -0.02,0.37 -0.06,0.73 -0.14,1.09 -0.03,0.15 -0.05,0.3 -0.08,0.46 -0.03,0.16 -0.02,0.29 0.02,0.36 0,0.31 -0.04,0.56 -0.11,0.75 0.03,0.16 0.04,0.33 0.05,0.5 0,0.17 0,0.34 0,0.52 -0.02,0.2 -0.02,0.37 -0.02,0.53 0,0.16 0.04,0.3 0.12,0.42 0.1,0.1 0.21,0.2 0.31,0.29 0.1,0.1 0.19,0.22 0.28,0.38 0.07,0.04 0.15,0.07 0.23,0.08 0.09,0.01 0.17,0.04 0.23,0.09 0.26,0.15 0.48,0.22 0.68,0.22l0.51 0.41c0.34,0.97 0.34,1.76 -0.02,2.4 -0.39,0.72 -1.15,1.19 -2.31,1.41l-0.59 0.06c-0.22,-0.15 -0.36,-0.26 -0.4,-0.31 -0.26,-0.06 -0.48,-0.11 -0.67,-0.15 -0.17,-0.03 -0.35,-0.14 -0.52,-0.3 -0.07,-0.05 -0.14,-0.07 -0.22,-0.07 -0.09,0 -0.17,-0.02 -0.23,-0.07 -0.29,-0.02 -0.53,-0.08 -0.72,-0.16l-0.5 -0.17c-0.02,-0.28 -0.04,-0.47 -0.06,-0.58 -0.28,-0.27 -0.52,-0.56 -0.7,-0.89 -0.19,-0.34 -0.37,-0.69 -0.52,-1.07 -0.14,-0.28 -0.27,-0.54 -0.38,-0.78 -0.11,-0.23 -0.26,-0.43 -0.44,-0.6 -0.4,-1.92 -0.53,-3.57 -0.36,-4.95 0.17,-1.39 0.39,-2.74 0.65,-4.08 0.16,-0.71 0.29,-1.43 0.41,-2.16 0.12,-0.74 0.21,-1.48 0.27,-2.23l0.38 -0.54c0.15,-0.21 0.26,-0.33 0.31,-0.36 -0.07,-0.36 -0.06,-0.72 0.01,-1.09 0.07,-0.37 0.16,-0.76 0.26,-1.14 0.07,-0.24 0.13,-0.48 0.19,-0.72 0.05,-0.24 0.07,-0.44 0.07,-0.61 -0.19,0.04 -0.36,0.07 -0.51,0.12 -0.14,0.04 -0.3,0.09 -0.46,0.15 -0.34,0.14 -0.68,0.25 -1.01,0.31 -0.25,0.05 -0.43,0.07 -0.55,0.06 -0.19,0.15 -0.39,0.25 -0.58,0.3 -0.19,0.05 -0.38,0.09 -0.57,0.13l-0.5 0.09 -0.49 0.1c-0.33,0.06 -0.59,0.15 -0.77,0.26 -0.38,0.07 -0.63,0.12 -0.74,0.14 -0.11,0.02 -0.23,0.04 -0.37,0.07l-0.5 0.09 -0.5 0.09c-0.21,0.04 -0.46,0.07 -0.75,0.08 -0.28,0.01 -0.59,-0.04 -0.92,-0.14l-0.35 -0.28c-0.23,-0.27 -0.41,-0.42 -0.55,-0.42l-0.48 -0.03 -0.08 -0.46z"/>
   <path class="fil6" d="M387.86 130.31c-0.28,0.05 -0.71,0.09 -1.3,0.11 -0.53,-0.38 -1.04,-0.95 -1.54,-1.7 -0.49,-0.74 -0.91,-1.56 -1.27,-2.45 -0.35,-0.89 -0.6,-1.8 -0.76,-2.73 -0.16,-0.92 -0.15,-1.77 0.02,-2.54 0,-0.03 0.06,-0.38 0.21,-1.06 0.14,-0.69 0.33,-1.55 0.56,-2.61 0.23,-1.05 0.5,-2.23 0.8,-3.52 0.3,-1.3 0.6,-2.57 0.91,-3.83 0.31,-1.25 0.61,-2.39 0.92,-3.43 0.31,-1.04 0.59,-1.86 0.85,-2.44 0.17,-0.44 0.34,-0.85 0.47,-1.25 0.14,-0.39 0.29,-0.76 0.42,-1.1 0.21,-0.56 0.41,-1.07 0.59,-1.54 0.18,-0.48 0.4,-0.92 0.65,-1.32 0.25,-0.4 0.55,-0.77 0.89,-1.1 0.33,-0.34 0.76,-0.65 1.27,-0.94 0.36,0.07 0.68,0.16 0.95,0.26 0.28,0.11 0.53,0.26 0.77,0.44l0.23 0.55c0.09,0.19 0.2,0.3 0.34,0.35 0.14,0.05 0.24,0.06 0.33,0.05 0.37,0.01 0.7,0.04 0.98,0.09 0.27,0.05 0.57,0.06 0.88,0.03 0.14,0.15 0.27,0.29 0.4,0.44 0.13,0.14 0.26,0.28 0.39,0.39 0.7,0.7 1.3,1.39 1.79,2.06 0.5,0.68 0.65,1.49 0.46,2.44l0.12 0.44c0.18,0.18 0.28,0.34 0.31,0.51 0.03,0.16 0.05,0.4 0.05,0.71 0.01,0.23 0.04,0.48 0.07,0.74 0.04,0.26 0.12,0.54 0.26,0.83l0.35 0.27c0.48,0.14 0.93,0.17 1.34,0.09 0.55,-0.1 1.03,-0.31 1.42,-0.64 0.4,-0.33 0.76,-0.66 1.1,-0.98 0.26,-0.27 0.51,-0.5 0.75,-0.69 0.23,-0.19 0.47,-0.33 0.71,-0.44 0.48,-0.65 0.92,-1.24 1.32,-1.76 0.4,-0.51 0.82,-1.04 1.26,-1.57 0.85,-0.99 1.65,-2.03 2.41,-3.13 0.77,-1.09 1.29,-2.38 1.6,-3.86 0.26,-0.24 0.58,-0.41 0.97,-0.48 0.39,-0.07 0.78,-0.06 1.2,0.01 0.41,0.09 0.83,0.18 1.25,0.31 0.09,0.03 0.18,0.06 0.25,0.08 0.07,0.01 0.16,0.04 0.25,0.08 0.06,0.3 0.23,0.56 0.52,0.76 0.17,0.08 0.28,0.13 0.33,0.15 0.06,0.02 0.12,0.03 0.19,0.05 0.24,0.09 0.45,0.19 0.62,0.27 0.17,0.08 0.32,0.21 0.44,0.39 0.38,0.7 0.9,1.2 1.55,1.5 0.01,0.31 0.08,0.61 0.21,0.88 0.14,0.27 0.29,0.54 0.45,0.79 0.07,0.11 0.14,0.2 0.18,0.29 0.05,0.09 0.11,0.2 0.19,0.33l-0.92 0.08 0.29 0.89c0.17,0.46 0.23,0.98 0.19,1.59 -0.05,0.61 -0.13,1.09 -0.27,1.46 0.21,0.81 0.36,1.46 0.45,1.95 0.09,0.48 0.15,0.93 0.17,1.35 0.02,0.43 0.01,0.83 -0.05,1.23 -0.05,0.4 -0.14,0.81 -0.26,1.26 0.5,2.08 0.61,4.03 0.35,5.88 -0.27,1.84 -0.61,3.59 -1.02,5.23 -0.04,0.21 -0.1,0.4 -0.14,0.58 -0.06,0.18 -0.1,0.36 -0.12,0.53 -0.29,0.14 -0.55,0.29 -0.77,0.45 -0.23,0.15 -0.44,0.32 -0.63,0.5 -0.27,0.25 -0.54,0.46 -0.82,0.64 -0.28,0.18 -0.59,0.31 -0.92,0.37 -1.5,-0.72 -2.49,-2.26 -2.97,-4.62 -0.48,-2.36 -0.54,-5.47 -0.17,-9.32 0.16,-0.18 0.21,-0.4 0.13,-0.67l-0.09 -0.46 -0.42 0.04c-0.13,0.02 -0.26,0.06 -0.36,0.11 -0.11,0.05 -0.17,0.19 -0.18,0.42 -0.77,0.8 -1.6,1.63 -2.51,2.49 -0.9,0.87 -1.86,1.69 -2.85,2.46 -1,0.77 -2.03,1.44 -3.1,2.02 -1.08,0.59 -2.16,0.98 -3.23,1.18 -2.75,0.51 -5.09,-0.5 -7.02,-3.05l-0.51 -0.68 -0.28 0.74c-0.06,0.15 -0.15,0.45 -0.29,0.89 -0.13,0.44 -0.25,0.93 -0.36,1.5 -0.11,0.56 -0.19,1.13 -0.24,1.71 -0.05,0.57 -0.01,1.06 0.13,1.47 -0.28,0.36 -0.54,0.77 -0.78,1.21 -0.25,0.44 -0.39,0.93 -0.44,1.45 -0.03,0.15 -0.02,0.28 0.03,0.4 0.05,0.12 0.12,0.24 0.2,0.37 0.01,0.2 -0.03,0.34 -0.09,0.44 -0.07,0.1 -0.15,0.2 -0.24,0.3 -0.11,0.17 -0.23,0.34 -0.34,0.52 -0.11,0.17 -0.2,0.37 -0.27,0.58 -0.03,0.17 -0.03,0.36 -0.03,0.54 0.01,0.19 0.01,0.35 0.01,0.49 0.05,0.3 0.05,0.52 -0.02,0.64 -0.16,0.63 -0.31,1.15 -0.45,1.56 -0.13,0.41 -0.29,0.73 -0.44,0.96 -0.16,0.23 -0.34,0.4 -0.53,0.5 -0.19,0.11 -0.43,0.19 -0.7,0.24z"/>
   <rect class="fil7 str2" x="14.2" y="118.81" width="348.34" height="5.74" rx="2.62" ry="2.87"/>
  </g>
 </g>
</svg>
