<?xml version="1.0" encoding="UTF-8"?>
<!DOCTYPE svg PUBLIC "-//W3C//DTD SVG 1.1//EN" "http://www.w3.org/Graphics/SVG/1.1/DTD/svg11.dtd">
<!-- Creator: CorelDRAW -->
<svg xmlns="http://www.w3.org/2000/svg" xml:space="preserve" width="200px" height="200px" version="1.1" style="shape-rendering:geometricPrecision; text-rendering:geometricPrecision; image-rendering:optimizeQuality; fill-rule:evenodd; clip-rule:evenodd"
viewBox="0 0 3.33 3.33"
 xmlns:xlink="http://www.w3.org/1999/xlink"
 xmlns:xodm="http://www.corel.com/coreldraw/odm/2003">
 <defs>
  <style type="text/css">
   <![CDATA[
    .str0 {stroke:#373435;stroke-width:0.04;stroke-miterlimit:22.9256}
    .fil4 {fill:none}
    .fil5 {fill:#373435}
    .fil0 {fill:black}
    .fil2 {fill:#00ABF3}
    .fil9 {fill:#019CDF}
    .fil8 {fill:#DF1E6D}
    .fil3 {fill:#EC2393}
    .fil7 {fill:#F3661E}
    .fil1 {fill:#FEEE12}
    .fil6 {fill:#FFB616}
   ]]>
  </style>
   <clipPath id="id0">
    <path d="M0 0l3.33 0 0 3.33 -3.33 0 0 -3.33z"/>
   </clipPath>
 </defs>
 <g id="Capa_x0020_1">
  <metadata id="CorelCorpID_0Corel-Layer"/>
  <g>
  </g>
  <g style="clip-path:url(#id0)">
   <g id="_2285329546704">
    <rect class="fil0 str0" width="3.33" height="3.33"/>
    <g>
     <image x="0" y="0.01" width="3.32" height="3.33" xlink:href="vercel_Images\vercel_ImgID1.png"/>
     <image x="-0.1" y="0.01" width="3.56" height="3.33" xlink:href="vercel_Images\vercel_ImgID2.png"/>
    </g>
    <g>
     <rect class="fil1" transform="matrix(5.19304E-15 -0.196078 0.193746 5.13128E-15 -0.00230432 4.68822)" width="9.19" height="5.74"/>
     <rect class="fil2" transform="matrix(5.19304E-15 -0.196078 0.193746 5.13128E-15 1.10892 4.68822)" width="9.19" height="5.74"/>
     <rect class="fil3" transform="matrix(5.19304E-15 -0.196078 0.193746 5.13128E-15 2.22013 4.68822)" width="9.19" height="5.74"/>
    </g>
   </g>
  </g>
  <polygon class="fil4" points="0,0 3.33,0 3.33,3.33 0,3.33 "/>
  <g id="_2285329557600">
   <path class="fil5" d="M1.54 1.61c0.03,0.08 0.06,0.22 0.13,0.27 0.02,0.02 0.02,0.02 0.05,0.05 0.03,0.01 0.04,0.02 0.07,0.03 0.1,0.04 0.24,0.03 0.34,-0.01 0.05,-0.03 0.11,-0.07 0.15,-0.1 0.03,-0.03 0.04,-0.04 0.07,-0.08 0.02,-0.02 0.03,-0.03 0.05,-0.05l0.04 -0.06 0 0.01c0.01,0.04 0.01,0.15 0,0.19 -0.01,0.18 -0.09,0.33 -0.21,0.45 -0.16,0.16 -0.38,0.26 -0.63,0.23 -0.27,-0.02 -0.45,-0.15 -0.44,-0.44 0,-0.13 0.07,-0.24 0.16,-0.33l0.09 -0.07c0.03,-0.03 0.1,-0.07 0.13,-0.09zm-0.48 0.67c-0.02,-0.01 -0.06,-0.07 -0.07,-0.09 -0.08,-0.12 -0.11,-0.26 -0.11,-0.4 0,-0.2 0.06,-0.36 0.16,-0.51 0.01,-0.03 0.04,-0.07 0.06,-0.1 0.02,0.01 0.04,0.03 0.05,0.04 0.1,0.06 0.12,0.08 0.21,0.15 0.02,0.03 0.11,0.12 0.12,0.15 -0.07,0.03 -0.14,0.09 -0.2,0.14 -0.1,0.08 -0.19,0.22 -0.22,0.35 -0.03,0.11 -0.01,0.17 0,0.27zm0.53 -0.82c0,0 -0.11,-0.12 -0.14,-0.15 -0.02,-0.02 -0.03,-0.03 -0.05,-0.05 -0.06,-0.05 -0.1,-0.08 -0.17,-0.12 -0.02,-0.02 -0.04,-0.03 -0.06,-0.04 0.02,-0.03 0.17,-0.2 0.2,-0.24 0.06,-0.06 0.15,-0.17 0.19,-0.24 0.02,-0.03 0.03,-0.06 0.05,-0.09 0.01,-0.02 0.04,-0.08 0.05,-0.1l0.07 0.12c0.07,0.14 0.11,0.26 0.1,0.43 -0.01,0.1 -0.04,0.2 -0.08,0.28 -0.04,0.07 -0.07,0.1 -0.12,0.15 -0.01,0.02 -0.03,0.03 -0.04,0.05zm0.35 -0.62l0.05 0.05c0.02,0.03 0.04,0.04 0.05,0.06l0.11 0.13c0.05,0.05 0.14,0.19 0.18,0.26 0.01,0.02 0.07,0.13 0.06,0.16 0,0.03 -0.06,0.12 -0.08,0.14 -0.09,0.13 -0.26,0.27 -0.43,0.23 -0.07,-0.01 -0.11,-0.04 -0.15,-0.08 -0.04,-0.06 -0.05,-0.13 -0.07,-0.2 -0.01,-0.02 -0.02,-0.03 -0.01,-0.04 0,-0.01 0.17,-0.12 0.24,-0.32 0.05,-0.13 0.06,-0.24 0.05,-0.39zm-0.29 -0.65c-0.06,0.02 -0.05,0.08 -0.09,0.18 -0.03,0.06 -0.06,0.12 -0.1,0.17 -0.22,0.33 -0.52,0.55 -0.66,0.95 -0.09,0.3 -0.04,0.59 0.15,0.83l0.06 0.07c0.08,0.08 0.11,0.11 0.23,0.17 0.13,0.07 0.27,0.1 0.44,0.1 0.17,0 0.31,-0.05 0.42,-0.11 0.12,-0.06 0.21,-0.15 0.29,-0.25 0.19,-0.24 0.22,-0.55 0.12,-0.84 -0.08,-0.24 -0.26,-0.46 -0.42,-0.64 -0.04,-0.05 -0.09,-0.09 -0.13,-0.14 -0.1,-0.13 -0.19,-0.27 -0.24,-0.43 -0.01,-0.04 -0.03,-0.07 -0.07,-0.06z"/>
   <path class="fil6" d="M1.54 1.61c-0.03,0.02 -0.1,0.06 -0.13,0.09l-0.09 0.07c-0.09,0.09 -0.16,0.2 -0.16,0.33 -0.01,0.29 0.17,0.42 0.44,0.44 0.25,0.03 0.47,-0.07 0.63,-0.23 0.12,-0.12 0.2,-0.27 0.21,-0.45 0.01,-0.04 0.01,-0.15 0,-0.19l0 -0.01 -0.04 0.06c-0.02,0.02 -0.03,0.03 -0.05,0.05 -0.03,0.04 -0.04,0.05 -0.07,0.08 -0.04,0.03 -0.1,0.07 -0.15,0.1 -0.1,0.04 -0.24,0.05 -0.34,0.01 -0.03,-0.01 -0.04,-0.02 -0.07,-0.03 -0.03,-0.03 -0.03,-0.03 -0.05,-0.05 -0.07,-0.05 -0.1,-0.19 -0.13,-0.27z"/>
   <path class="fil7" d="M2.04 0.95c-0.01,-0.02 -0.03,-0.03 -0.05,-0.06l-0.05 -0.05c0.01,0.15 0,0.26 -0.05,0.39 -0.07,0.2 -0.24,0.31 -0.24,0.32 -0.01,0.01 0,0.02 0.01,0.04 0.02,0.07 0.03,0.14 0.07,0.2 0.04,0.04 0.08,0.07 0.15,0.08 0.17,0.04 0.34,-0.1 0.43,-0.23 0.02,-0.02 0.08,-0.11 0.08,-0.14 0.01,-0.03 -0.05,-0.14 -0.06,-0.16 -0.04,-0.07 -0.13,-0.21 -0.18,-0.26l-0.11 -0.13z"/>
   <path class="fil8" d="M1.59 1.46c0.01,-0.02 0.03,-0.03 0.04,-0.05 0.05,-0.05 0.08,-0.08 0.12,-0.15 0.04,-0.08 0.07,-0.18 0.08,-0.28 0.01,-0.17 -0.03,-0.29 -0.1,-0.43l-0.07 -0.12c-0.01,0.02 -0.04,0.08 -0.05,0.1 -0.02,0.03 -0.03,0.06 -0.05,0.09 -0.04,0.07 -0.13,0.18 -0.19,0.24 -0.03,0.04 -0.18,0.21 -0.2,0.24 0.02,0.01 0.04,0.02 0.06,0.04 0.07,0.04 0.11,0.07 0.17,0.12 0.02,0.02 0.03,0.03 0.05,0.05 0.03,0.03 0.14,0.15 0.14,0.15z"/>
   <path class="fil9" d="M1.06 2.28c-0.01,-0.1 -0.03,-0.16 0,-0.27 0.03,-0.13 0.12,-0.27 0.22,-0.35 0.06,-0.05 0.13,-0.11 0.2,-0.14 -0.01,-0.03 -0.1,-0.12 -0.12,-0.15 -0.09,-0.07 -0.11,-0.09 -0.21,-0.15 -0.01,-0.01 -0.03,-0.03 -0.05,-0.04 -0.02,0.03 -0.05,0.07 -0.06,0.1 -0.1,0.15 -0.16,0.31 -0.16,0.51 0,0.14 0.03,0.28 0.11,0.4 0.01,0.02 0.05,0.08 0.07,0.09z"/>
  </g>
 </g>
</svg>
